<svg width="2560" height="1600" xmlns="http://www.w3.org/2000/svg">
 <!-- Created with Method Draw - http://github.com/duopixel/Method-Draw/ -->

 <g>
  <title>background</title>
  <rect fill="#fff" id="canvas_background" height="1602" width="2562" y="-1" x="-1"/>
  <g display="none" overflow="visible" y="0" x="0" height="100%" width="100%" id="canvasGrid">
   <rect fill="url(#gridpattern)" stroke-width="0" y="0" x="0" height="100%" width="100%"/>
  </g>
 </g>
 <g>
  <title>Layer 1</title>
  <rect opacity="0.47" id="svg_10" height="1643.386577" width="2570.083495" y="-7.532615" x="-5.712251" stroke-opacity="null" stroke-width="0" stroke="#000" fill="#ffff00"/>
  <path id="svg_13" d="m698.08197,346.686584l-129.121582,45.944244l0,-91.81543l129.121582,45.871185zm-93.759155,-226.292435l-58.821716,123.838181l-64.904968,-64.979065l123.726685,-58.859116zm-226.253357,-93.682121l45.925812,129.138176l-91.852661,0l45.926849,-129.138176zm-226.274811,93.682121l123.784454,58.859116l-64.943573,64.979065l-58.840881,-123.838181zm-93.73772,226.292435l129.157825,-45.871185l0,91.81543l-129.157825,-45.944244zm93.73772,226.292419l58.840881,-123.764648l64.943573,64.941772l-123.784454,58.822876l0,0zm226.274811,93.755615l-45.926849,-129.138794l91.852661,0l-45.925812,129.138794zm226.253357,-93.755615l-123.763245,-58.822876l64.923645,-64.941772l58.8396,123.764648zm-386.241501,-226.292419l0,0c0,-88.345917 71.642838,-160.006866 160.024765,-160.006866c88.344116,0 160.005859,71.66095 160.005859,160.006866c0,88.381042 -71.661743,160.005188 -160.005859,160.005188c-88.400269,0 -160.024765,-71.624146 -160.024765,-160.005188l0,0z" stroke-opacity="null" stroke-width="0" stroke="#000" fill="#535F75"/>
  <path id="svg_14" d="m1746.230469,1479.59729c-18.040771,-15.146362 -51.755127,1.306396 -55.8396,-26.334473c-7.803101,-24.59021 16.136963,-43.75415 32.037231,-58.636719c27.794922,-13.894287 59.953491,-15.580811 90.008179,-21.93457c36.120972,-5.213257 73.702271,-9.718384 104.813599,-30.453613c35.392334,-22.210083 74.86084,-40.622437 117.542725,-40.291748c58.782104,-2.062012 119.600464,-0.051514 174.023315,25.029053c34.138916,15.421753 70.846924,23.239014 107.318359,30.785522c31.072754,4.13147 23.843994,37.574463 34.151123,58.207642c7.866699,23.667725 -9.171875,47.290405 -34.077393,47.993652c-26.349854,6.03186 -57.237549,6.626465 -75.632568,29.594482c-18.840576,20.900635 -52.665527,20.13623 -71.900635,0.210205c-7.927734,-4.882935 -13.239502,-16.828247 -23.758545,-14.768188c-98.554321,0.545654 -197.155884,-1.411743 -295.654663,1.744873c-25.727173,-2.069824 -36.436401,29.91272 -63.841064,27.684448c-14.023315,0.436035 -27.272217,-22.201782 -39.190063,-28.830566l0,0z" stroke-opacity="null" stroke-width="0" stroke="#000" fill="#535F75"/>
  <rect id="svg_17" height="93.336391" width="2886.760335" y="1510.523063" x="-148.379626" stroke-opacity="null" stroke-width="0" stroke="#000" fill="#535F75"/>
  <rect id="svg_15" height="93.336391" width="2886.760335" y="1520.523387" x="-88.37768" stroke-opacity="null" stroke-width="0" stroke="#000" fill="#535F75"/>
  <rect id="svg_18" height="16.667207" width="126.670777" y="1541.920272" x="0.228992" stroke-opacity="null" stroke-width="0" stroke="#000" fill="#fcfcfc"/>
  <rect id="svg_19" height="16.667207" width="126.670777" y="1541.920272" x="377.143818" stroke-opacity="null" stroke-width="0" stroke="#000" fill="#fcfcfc"/>
  <rect id="svg_16" height="16.667207" width="126.670777" y="1541.920272" x="2327.222117" stroke-opacity="null" stroke-width="0" stroke="#000" fill="#fcfcfc"/>
  <rect id="svg_20" height="16.667207" width="126.670777" y="1541.920272" x="780.505241" stroke-opacity="null" stroke-width="0" stroke="#000" fill="#fcfcfc"/>
  <rect id="svg_21" height="16.667207" width="126.670777" y="1541.920272" x="1183.851668" stroke-opacity="null" stroke-width="0" stroke="#000" fill="#fcfcfc"/>
  <rect id="svg_22" height="16.667207" width="126.670777" y="1541.920272" x="1553.863679" stroke-opacity="null" stroke-width="0" stroke="#000" fill="#fcfcfc"/>
  <rect id="svg_23" height="16.667207" width="126.670777" y="1541.920272" x="1957.210106" stroke-opacity="null" stroke-width="0" stroke="#000" fill="#fcfcfc"/>
  <path id="svg_24" d="m618.437317,967.780334c-2.811951,0 -4.255981,-3.198547 -4.255981,-6.9776c0,-3.192749 0.721619,-6.294006 2.816589,-6.294006c1.439392,0 3.628418,3.101257 4.349548,6.294006c1.44635,4.631409 0,6.9776 -2.910156,6.9776zm481.122253,182.198303c6.439941,0 7.885498,0.850586 4.253052,6.342285c-2.092285,3.775879 -6.444458,6.975464 -8.526001,6.975464c-2.16272,0 -4.351563,-3.199585 -4.351563,-6.975464c0,-3.932495 2.910767,-6.342285 8.624512,-6.342285zm-449.569092,-222.853577c-6.43335,-1.516235 -7.154724,-9.352661 0,-11.791931c3.643066,-0.71875 5.720215,1.586487 5.720215,6.354858c0,3.920837 -2.077148,6.208984 -5.720215,5.437073zm-80.233948,247.810486c8.595947,-2.209839 8.595947,-3.889404 5.68396,-9.281372c-2.16217,-3.926758 -2.883362,-8.61499 -1.440491,-10.184448c0.720825,-2.335938 4.352478,0 6.444702,4.627075c2.907227,6.305908 5.073486,7.130005 10.797363,3.199585c3.545898,-2.341553 6.430481,-3.914307 6.430481,-1.56897c0,1.56897 2.164551,0 5.000488,-3.198364c4.332397,-4.620605 5.075012,-14.846436 0.722046,-20.257324c-3.557983,-4.710205 -21.509949,-3.137451 -26.487976,2.345337c-2.907104,3.914185 -5.072998,3.065552 -7.896973,-3.912109c-4.332031,-11.714355 -4.332031,-13.328247 5.710693,-14.047241c8.631104,0 8.631104,0 1.464783,-4.705811c-3.628479,-2.310425 -7.175476,-7.088989 -7.175476,-10.156372c0,-7.858643 9.991577,-12.493042 14.341797,-7.059448c1.444763,2.276489 4.244263,4.69043 7.170105,4.69043c5.71051,0 32.986877,-26.558105 32.986877,-32.043579c0,-2.341187 2.840515,-3.901733 5.723755,-2.341187c3.550354,0.797729 9.99585,-1.560547 16.510498,-5.473267c9.249207,-6.285889 9.249207,-7.008057 4.247314,-17.219604c-3.525818,-7.053833 -7.876099,-9.408813 -17.92865,-9.408813c-11.435486,0 -14.342163,1.562256 -17.880493,10.916748c-1.464539,6.336548 -5.795715,11.006104 -8.621094,11.006104c-4.976379,0 -6.444458,-7.07373 -1.442078,-11.006104c2.166077,-1.507935 3.629883,-6.992188 3.629883,-12.489502c0,-8.555908 -1.463806,-10.072388 -10.79895,-7.838013c-9.352905,1.58728 -9.352905,0.850952 -7.148682,-10.93689c1.44165,-6.980469 3.520752,-13.327271 4.987549,-14.045593c1.44458,-0.79834 2.884583,-7.879028 2.884583,-14.832275c0,-14.083008 4.284302,-16.439392 12.15625,-6.295898c3.606323,5.444336 5.79657,6.295898 7.169128,1.516052c1.439392,-3.084473 6.510986,-3.82605 14.402466,-2.259277c10.713989,3.10437 11.435364,2.259277 9.98999,-7.043884c-0.721497,-5.412537 -1.443237,-11.768494 -2.161865,-13.290344c0,-2.388123 -3.561951,-5.449707 -7.828125,-7.832458c-8.606567,-3.919128 -10.774048,-13.328308 -2.883728,-13.328308c2.162354,0 4.266357,-1.584412 4.266357,-4.639954c0,-2.38855 4.32843,-3.929932 10.052734,-3.212708c7.909546,0.824158 12.156616,-2.287109 22.95459,-18.713379c7.873108,-11.742249 13.595276,-18.030823 14.31897,-14.834351c0.721069,3.918274 4.350525,6.21875 7.908875,6.21875c5.712708,0 6.434143,-2.300476 4.332275,-12.487427c-0.721619,-7.067993 -4.332275,-15.623718 -6.530457,-19.565369c-6.434387,-8.611877 -6.434387,-18.784241 0,-15.675903c5.085938,3.140747 20.848877,-5.448059 20.848877,-10.946655c0,-2.339905 2.105896,-3.920593 4.990173,-3.920593c2.919678,0 4.279907,4.772156 4.279907,10.98822c0,7.844482 1.443298,10.943054 5.072998,8.654907c2.816162,-1.635132 5.00177,-6.312683 5.00177,-9.406494c0,-9.375732 22.92926,-25.790771 28.640686,-21.14917c2.190247,1.571106 4.351929,0 5.073547,-5.494202c2.120056,-10.89856 15.042297,-19.485535 20.766479,-13.993591c2.911194,2.244507 5.7229,1.518921 6.468201,-0.850769c1.445313,-3.072937 7.156738,-5.465881 13.597778,-6.211243c6.44458,-0.790833 15.044189,-3.929932 18.673767,-7.121643c13.609436,-10.085938 27.211243,-9.367432 32.922974,1.569641c3.62854,7.840576 5.074341,7.840576 5.074341,2.341003c0,-6.97052 2.812622,-7.842468 20.041382,-5.401062c27.283386,3.060059 31.561401,3.060059 41.637146,-0.85199c6.433411,-2.308167 8.600464,-1.589417 8.600464,4.763855c0,3.909363 2.076904,6.98877 5.000305,6.98877c2.161499,0 4.244629,-2.288574 4.244629,-4.649475c0,-6.25116 11.543762,-9.411316 21.593811,-6.25116c7.805847,3.060059 8.524048,3.911865 6.434509,24.975769c-0.723633,12.554932 0,21.098633 1.371338,21.098633c1.439697,0 2.907654,-5.433472 2.907654,-13.252686c0,-13.280518 7.878235,-18.715881 10.796753,-7.845947c0.72229,3.919373 2.800476,2.349487 4.24408,-3.864685c3.630127,-16.428955 11.519409,-7.831848 9.353516,10.127686c-2.196594,14.835632 -2.196594,14.835632 4.24884,9.402161c3.628418,-2.390442 6.439697,-8.536865 6.439697,-12.463684c0,-3.914185 2.192017,-8.636047 5.074646,-10.258667c5.710999,-3.095276 12.155762,8.680908 10.078918,17.243286c-0.721313,3.909363 -0.721313,6.995239 1.355408,6.995239c1.442871,0 2.888733,-2.234924 2.888733,-3.906616c0,-2.238525 3.557007,-3.088623 7.909302,-1.517517c9.321167,2.338257 10.687866,8.622925 2.802734,12.492981c-2.081055,1.620605 -4.266602,5.41687 -4.266602,8.607361c0,5.503967 1.463867,5.503967 9.341309,0c12.887939,-9.326477 18.600098,-8.607361 20.764282,1.571533c1.468384,5.502258 4.280762,7.882141 7.169189,5.502258c2.907593,-0.824707 9.351563,2.379883 14.341553,7.78302c4.352173,4.726013 10.772705,8.587341 13.681519,8.587341c4.272949,0 4.272949,3.924133 2.802979,14.905457c-1.442627,11.764343 -1.442627,13.291138 2.907104,8.562622c5.724609,-7.793152 7.890991,-7.075684 10.004883,3.924805c0.721436,5.428467 5.772339,9.334351 11.483154,11.773621c6.44519,1.48938 9.990356,5.404175 9.990356,10.124573c0,4.713562 2.165649,10.210876 4.369019,13.283447c5.710571,5.484863 4.243164,21.906311 -2.203369,27.318848c-2.165649,1.719727 -4.989624,0.868408 -5.710815,-1.49231c-1.443359,-2.425171 -6.44519,-2.425171 -15.761719,0c-15.078613,5.444275 -17.881592,7.002075 -14.355225,14.101685c2.183716,4.671143 27.233398,3.1073 40.914551,-2.335144c4.266846,-2.39563 5.712158,0 5.712158,10.94104c0,7.818909 -1.445313,14.033936 -3.606934,14.033936c-1.46814,0 -2.828613,2.367371 -2.828613,6.295471c0,9.405029 3.550537,8.548462 12.880493,-2.374878c4.98999,-6.329773 7.873779,-7.84491 11.434937,-3.920593c3.605957,3.920593 4.35022,3.920593 4.35022,-2.40918c0,-3.805847 -1.465576,-6.986938 -3.62793,-6.986938c-1.36145,0 -2.84082,-3.071899 -2.84082,-6.207275c0,-3.929138 2.11853,-7.036438 5.003174,-7.036438c2.18689,0 5.072998,1.566772 5.072998,3.82605c0,2.413269 2.837891,5.498352 6.446289,6.345764c4.989258,2.353027 6.432617,5.387329 5.71106,14.835388c-1.444214,17.975098 1.442749,23.413452 12.156006,20.328125c5.086548,-1.55481 7.88501,0 5.723267,3.085327c-0.636719,1.58728 0,5.486206 1.439087,7.120605c5.797119,4.645142 3.634277,15.621826 -2.798096,15.621826c-7.913696,0 -10.075317,3.921631 -5.807373,10.932739c2.882568,3.934326 5.086182,4.62793 7.884277,1.5896c6.518311,-7.883179 7.914551,-1.5896 8.636353,29.656738c0,15.693359 1.442627,28.206909 2.882568,28.206909c3.550171,0 2.16748,17.240479 -2.882568,24.23938c-2.8396,3.932129 -2.8396,7.72229 -0.721802,10.913452c5.050781,7.057007 0,27.415039 -6.470703,27.415039c-5.723145,0 -16.48645,14.844727 -16.48645,21.839233c0,8.578003 -9.265625,0 -11.433105,-9.370728c-2.162598,-8.558716 -2.162598,-8.558716 -3.641113,-2.39502c-1.360718,7.112915 6.470093,29.04126 12.962402,35.248413c4.28064,4.689331 -3.610107,12.555054 -9.321289,9.359863c-2.919434,-1.51709 -4.278809,-6.156616 -4.278809,-10.931885c0,-13.332642 -17.949097,-46.890259 -31.549683,-59.462402c-7.252441,-6.216675 -13.681152,-13.192139 -13.681152,-15.604614c0,-4.726685 -22.9552,-19.489746 -35.833496,-24.275635c-7.164673,-2.330933 -9.329956,-1.502319 -9.329956,4.785889c0,4.62793 -1.359253,6.198364 -4.267822,4.62793c-6.44397,-3.060547 -9.351563,3.91748 -3.640503,10.932007c7.908325,8.550415 6.549072,18.815674 -2.082275,14.888916c-5.796265,-2.422729 -6.517212,-1.571167 -4.353271,11.768799c0.724487,7.719238 2.186279,17.941895 2.186279,22.581665c0,4.783325 1.445801,7.846802 2.888428,7.846802c2.10083,0 2.83667,-1.493164 1.36084,-3.933105c-0.722412,-2.345093 0.73999,-4.639282 3.640503,-4.639282c2.161743,0 4.267822,3.119995 4.267822,6.227295c0,3.195801 -2.823242,6.248169 -7.908325,5.479614c-4.249268,0 -7.87854,-2.283813 -7.87854,-3.855957c0,-7.125366 -19.320557,-55.51416 -25.044556,-62.660767c-6.432861,-7.696533 -2.16626,-10.121094 -53.034485,26.62915c-7.915649,5.501099 -16.510315,17.26355 -20.861938,25.838379c-3.537842,8.56958 -9.249023,17.240234 -12.169128,18.748535c-2.888245,1.569214 -13.601379,14.076782 -22.917908,27.398682c-40.194153,58.602173 -33.668823,65.673096 -30.840454,185.379272c12.156128,90.708496 12.156128,90.708496 12.156128,90.708496c-28.664551,0 -28.664551,0 -28.664551,0c-23.675049,0 -23.675049,0 -23.675049,0c2.186096,-83.694092 2.186096,-83.694092 2.186096,-83.694092c1.446716,-7.014404 2.168091,-21.188354 2.885681,-29.040894c0.723022,-4.626465 -20.116211,-24.985962 -19.392212,-29.620728c0,-3.93042 21.557434,7.067749 21.557434,3.142822c3.558044,-57.083252 0,-102.527466 -9.327942,-126.660034c-2.16748,-14.833496 -20.118958,-62.647095 -22.943115,-62.647095c-0.720947,0 -5.807129,-4.639526 -10.773376,-10.146973c-8.63208,-10.205078 -12.156677,-10.923828 -60.227417,-14.063965c-51.628723,-3.209351 -51.628723,-3.209351 -51.628723,-3.209351c-12.203857,10.998657 -12.203857,10.998657 -12.203857,10.998657c-7.164917,7.146729 -14.356689,11.782104 -16.438538,11.782104c-4.352539,0 -22.316101,16.386841 -30.104614,25.74231c-0.723145,0 -1.444946,-0.768555 -1.444946,-1.486206c-0.721436,0 -0.721436,0 -0.721436,-0.85144c-0.721863,-2.286865 -1.476685,-4.628906 -2.92041,-7.017822c4.363647,-3.918335 7.910034,-6.313354 9.353027,-5.46228c2.167297,1.543945 4.28064,0 4.28064,-3.951538c0,-3.90625 -4.28064,-5.481934 -15.715759,-3.90625c-13.681641,2.375732 -17.231995,3.200684 -19.393738,12.494263c-3.562012,4.785034 -4.2771,11.750366 -2.165039,17.250122c-0.757751,7.021729 -0.757751,11.790283 0,11.790283c0.721741,0 1.443542,-1.569824 3.610779,-3.19812c0,0.765259 0.716003,1.628296 1.441101,2.346558c-7.16394,2.340576 -10.798035,9.414795 -10.052795,16.406982c-3.630676,3.199219 -7.188171,4.752197 -11.519348,7.129761c0,0 0,-0.859863 -0.637573,-0.859863c2.802673,-7.006348 4.247253,-14.848145 4.96875,-26.593872c1.464539,-13.239014 0.718323,-21.926758 -1.443359,-21.926758c-1.444641,0 -2.887817,3.21167 -2.887817,7.836182c0.721558,3.930786 -0.637573,7.883423 -3.546326,8.594849c-2.16626,0.824585 -3.60614,-0.711426 -3.60614,-4.664063c0,-9.327026 -2.838318,-9.327026 -9.270752,-0.769775c-2.887207,3.190186 -8.610474,7.010986 -13.609924,8.633667c-6.518372,2.295898 -8.595947,0.72644 -11.506287,-7.863892c-2.168091,-6.983154 -3.608398,-14.828369 -2.168091,-17.929321c0.721619,-3.921021 0.721619,-7.104248 -2.113586,-7.104248c-7.889099,0 -2.166321,-12.485474 7.192017,-14.929565zm61.64386,-179.731628c-4.329468,-0.851563 -7.891479,-3.151733 -9.329285,-6.340942c-0.723633,-4.647034 -1.444763,-4.647034 -1.444763,0c0,3.189209 -2.906677,5.48938 -5.723389,6.340942c-5.074158,0 -5.074158,0.771729 0.722412,3.897522c3.534363,1.520813 7.168457,3.928955 7.883545,3.928955c0.639221,0 4.286499,-2.408142 7.891479,-3.928955c6.432434,-3.897522 6.432434,-3.897522 0,-3.897522zm568.554443,125.860046c1.359009,1.59375 2.798096,-0.773804 2.798096,-4.703491c0,-3.140381 -1.439087,-6.216309 -2.798096,-6.216309c-2.202393,0 -3.640503,1.571899 -3.640503,3.874512c0,2.341797 1.43811,5.554199 3.640503,7.045288zm-5.085815,7.066528c-0.721558,-2.420776 -4.267944,-5.472778 -7.155273,-5.472778c-2.112915,0 -3.557617,3.052002 -2.112915,5.472778c0.666626,2.354126 3.557129,3.940552 6.440308,3.940552c2.827881,0 3.549438,-1.586426 2.827881,-3.940552zm-6.433716,35.165894c2.165771,0 5.074951,-0.851563 5.074951,-1.56897c0,-1.630615 -2.90918,-3.198364 -5.074951,-4.688232c-2.834473,-1.569458 -5.000732,-0.718262 -5.000732,1.489868c0,2.425781 2.16626,4.767334 5.000732,4.767334zm5.712158,-74.260986c2.882568,-1.585449 4.364746,-3.932861 3.60498,-6.223511c-2.161865,-5.560181 -14.317871,-5.560181 -14.317871,0c0,6.223511 4.279175,8.565674 10.712891,6.223511zm-39.355103,-58.655151c-3.629517,2.341553 -5.795166,6.987061 -5.073608,9.410767c3.609375,6.166016 7.878052,4.6427 11.4823,-5.49353c3.556641,-9.408325 2.11853,-10.924988 -6.408691,-3.917236zm-13.705078,120.448975c18.671143,21.068726 19.392578,21.896484 19.392578,14.824951c0,-3.926758 -1.440308,-7.125122 -3.605225,-7.125122c-2.082275,0 -5.711792,-3.909668 -7.877441,-8.550415c-2.114136,-4.639038 -6.442505,-9.361572 -9.993042,-9.361572c-6.529053,0 -6.529053,0.771362 2.08313,10.212158zm-15.040894,-36.810547c4.350708,0 6.428711,-1.584229 3.604736,-2.302612c-2.164551,-1.571899 -5.699219,-1.571899 -7.887939,0c-2.161743,0.718384 0,2.302612 4.283203,2.302612zm-20.763428,-106.349609c2.162109,2.374878 8.606812,5.441589 14.318481,7.001282c10.049683,2.3526 10.795654,2.3526 5.07312,-3.910828c-6.517944,-7.729126 -24.398926,-10.137268 -19.391602,-3.090454zm-43.720215,-129.781433c-2.190063,2.287109 -2.911133,7.038879 -2.190063,10.144104c1.442993,6.249084 5.723389,0.825378 5.723389,-8.601318c0,-4.685852 -0.720947,-5.484436 -3.533325,-1.542786zm21.485474,168.891785c5.725098,3.923096 7.886841,3.923096 10.797607,-1.575439c5.713745,-8.554077 2.078369,-12.482178 -8.635742,-6.985107c-8.594971,3.794189 -8.594971,3.794189 -2.161865,8.560547zm-14.322876,-39.110352c10.79834,-8.567627 10.79834,-8.567627 2.166992,-8.567627c-5.796265,0 -10.07666,3.063232 -12.240723,8.567627c-1.356934,5.441589 -2.799805,8.569885 -2.078369,8.569885c0,0 5.711182,-4.627014 12.1521,-8.569885zm-15.786011,126.749634c4.990845,8.54541 13.599731,8.54541 10.786499,-0.857178c-0.724243,-3.076904 -1.441406,-6.99939 -1.441406,-7.851807c0,-0.719116 -2.911743,-0.719116 -6.432617,0.852417c-5.796143,1.568359 -5.796143,3.922485 -2.912476,7.856567zm-22.209229,-32.113281c5.687134,8.557495 8.599976,9.410645 15.04541,3.121094c4.280151,-3.919434 4.280151,-3.919434 0,-4.69043c-2.165527,0 -7.890259,-0.799194 -12.880249,-2.342651c-7.165527,-3.090942 -7.165527,-3.090942 -2.165161,3.911987zm-0.741333,-85.282471c3.629883,0 7.896484,-12.476135 5.711304,-16.400696c-2.80481,-3.954468 -8.599731,2.408142 -8.599731,9.421692c0,3.908081 1.443848,6.979004 2.888428,6.979004zm-35.08783,53.169067c-4.364197,3.190918 -3.640442,3.937866 2.08252,3.937866c3.629578,0 7.883545,-1.518921 9.354187,-3.937866c2.164368,-6.21875 -5.003296,-6.21875 -11.436707,0zm0.722046,68.854614c0.637329,0.851563 2.800049,-0.774902 4.990051,-4.62793c2.164001,-3.208252 8.607239,-7.116821 13.600098,-8.708984c6.441467,-2.333008 9.3302,-6.136841 9.3302,-11.69104c0,-13.282593 -10.051758,-9.36377 -20.766296,7.815796c-4.354004,8.650146 -7.876099,15.646606 -7.154053,17.212158zm-7.889282,-36.034058c6.446045,-8.561768 6.446045,-10.119995 1.360046,-12.486938c-5.71167,-3.075684 -9.992371,3.925171 -9.992371,16.418091c-0.721436,9.416748 -0.721436,9.416748 8.632324,-3.931152zm-11.51532,-92.253052c0.722595,6.263428 2.16156,5.479431 6.441589,-6.212708c5.07373,-12.494629 5.07373,-14.11377 0.722107,-14.11377c-2.800293,0 -5.723633,2.345093 -6.441101,6.234741c-1.443787,3.156372 -1.443787,10.271118 -0.722595,14.091736zm-3.550293,-64.094238c0,3.208923 1.360107,10.944702 2.829102,16.421448c2.161255,10.922302 2.161255,10.922302 4.362305,1.495056c2.800476,-9.353882 0,-23.401367 -4.362305,-23.401367c-2.106445,0 -2.829102,2.327637 -2.829102,5.484863zm-50.230774,25.78595c-3.527283,5.470703 -3.527283,10.967407 -0.721558,27.372925c1.442383,11.787781 5.072449,23.54834 7.149109,25.780945c3.645935,3.924194 4.368896,0 5.090576,-24.265808c0,-29.634399 -3.645386,-38.998108 -11.518127,-28.888062zm6.427551,82.91925c0.722534,1.540405 2.203186,-1.581299 1.44519,-6.249268c0,-4.6875 -0.722656,-5.405396 -2.161377,-2.341797c-0.638184,3.077393 -0.638184,7.009766 0.716187,8.591064zm25.842529,-73.520264c-0.721436,1.56842 -0.721436,12.502136 1.477112,24.265625c2.164734,20.328125 2.802063,21.179077 3.525269,6.27594c0.721497,-24.246704 -0.723206,-36.013916 -5.00238,-30.541565zm-24.397339,220.561768c4.362244,-9.363647 11.519104,-25.032349 16.51886,-34.468994c5.71167,-10.132446 9.355591,-23.411743 10.798828,-36.732544c2.082031,-21.066284 2.082031,-21.066284 2.082031,-21.066284c-8.612061,11.690308 -8.612061,11.690308 -8.612061,11.690308c-4.268799,6.296021 -7.151855,13.299805 -7.151855,15.646606c0,6.201538 -13.635803,45.320435 -17.879456,52.384033c-2.16571,3.9021 -5.795898,12.546875 -6.434998,18.765137c-3.640442,17.998657 2.805908,14.858765 10.67865,-6.218262zm-50.871094,80.57251c2.186279,15.560913 2.186279,15.560913 9.352661,-18.012817c4.280823,-18.048096 10.714478,-46.934937 15.043335,-64.901367c5.723633,-22.690674 7.911743,-41.54126 7.911743,-67.999268c0,-34.481812 -0.745544,-35.25293 -6.469177,-31.334961c-12.962463,10.126831 -20.114258,38.310547 -23.002808,93.031128c-1.372559,28.195801 -2.835754,56.367432 -4.279907,62.529175c-0.721924,6.337891 0,18.100098 1.444153,26.68811zm1.463196,-200.172607c2.817017,7.713745 5.724976,14.006226 5.724976,14.006226c0.721558,0 4.246765,-4.722656 7.16626,-10.945557c3.605835,-5.425171 9.316711,-11.742676 11.484131,-14.033081c8.546509,-7.04541 10.71344,-28.974854 3.556763,-43.82605c-5.724182,-13.343079 -21.485596,-28.18927 -24.392456,-23.466614c-1.44635,1.569031 -3.539673,16.38739 -5.002869,33.672058c-2.887451,25.754395 -2.887451,33.620605 1.463196,44.593018zm-4.350647,-179.113586c1.443298,1.577393 2.887451,0.727234 2.887451,-1.624329c0,-3.145508 -1.444153,-6.222229 -2.887451,-7.793152c-2.185913,-1.620605 -3.546448,-0.76947 -3.546448,2.302734c0,2.34491 1.360535,5.490417 3.546448,7.114746zm-232.272827,210.320374c9.992126,0.771729 9.992126,0.771729 9.992126,0.771729c10.074829,0 20.114136,-10.135498 20.114136,-18.770142c0,-5.494629 -0.721497,-5.494629 -30.106262,17.998413zm4.268066,-21.923218c0,2.355347 1.443726,4.722656 3.641846,4.722656c3.522095,0 13.601746,-14.006226 11.434998,-16.370728c-2.201538,-3.195679 -15.076843,7.002563 -15.076843,11.648071zm7.910034,-53.876587c10.772339,15.570313 15.763184,17.151611 21.48584,6.985107c5.795532,-9.328125 0.721741,-15.674683 -16.520569,-17.909058c-14.320251,-2.405762 -14.320251,-2.405762 -4.965271,10.92395zm-7.910034,-43.866516c0,1.623291 5.086792,5.471802 10.797791,8.67804c26.475464,14.842896 31.561401,14.842896 30.839844,0.718079c0,-8.544556 -10.798767,-27.370605 -15.077515,-27.370605c-5.049744,0 -26.56012,14.902588 -26.56012,17.974487zm38.753174,111.074158c7.87384,0 8.595276,-2.41394 2.163086,-6.20813c-2.921082,-0.824951 -5.724854,0 -6.446289,2.288696c-1.464783,2.377441 0.721436,3.919434 4.283203,3.919434zm5.711853,-183.738525c-4.993591,-3.915588 -11.459839,-5.488159 -14.347412,-3.915588c-5.000916,3.06842 -4.279419,3.915588 2.887573,6.255981c3.545532,1.580444 10.798523,3.09668 14.343262,3.868591c4.281494,0 4.281494,-1.569458 -2.883423,-6.208984zm-0.661316,28.186218c4.266296,0 4.990112,-0.864441 2.101868,-3.208923c-2.101868,-0.71875 -4.989319,-0.71875 -6.434143,0.771912c-0.718262,1.572571 1.444824,3.152405 4.332275,2.437012zm4.266296,17.906128c-10.074829,0 -10.074829,0.718933 -4.266296,7.080505c7.150696,6.98938 9.269409,7.814575 12.151917,3.061096c4.990662,-6.217041 1.444946,-10.141602 -7.88562,-10.141602zm14.319702,-88.349915c-2.88501,-3.914734 -3.606384,3.099609 -2.161682,11.704041c0.718262,5.449097 3.605774,10.221436 5.085754,10.221436c2.80011,0 0.718201,-17.253113 -2.924072,-21.925476zm22.953857,103.244995c-1.4422,0.743225 2.162292,5.469666 6.445068,9.37677c4.353455,3.923462 7.885925,5.481262 7.885925,3.151733c0,-5.48938 -12.168701,-15.71106 -14.330994,-12.528503zm-17.951355,5.469666c-6.445923,5.488403 -2.800964,19.523987 6.517029,21.898865c5.002197,1.567993 12.880493,7.829346 17.879395,14.046997c4.353455,6.289307 7.885925,8.630859 7.885925,6.289307c0,-7.860779 -28.648621,-45.445557 -32.282349,-42.235168zm29.399109,64.925598c-4.281128,-12.568359 -9.285461,-18.773193 -18.601318,-22.69043c-7.164063,-3.085327 -14.356201,-4.775146 -16.522827,-3.936279c-2.162476,0.850952 6.446716,10.92334 18.687073,22.677246c22.954224,20.359985 22.954224,20.359985 16.437073,3.949463zm38.067566,-120.460144c-1.443359,0 -2.911194,3.078613 -2.911194,6.207092c0,3.933716 1.467834,6.277588 2.911194,6.277588c2.089905,0 3.557007,-2.343872 3.557007,-6.277588c0,-3.128479 -1.467102,-6.207092 -3.557007,-6.207092zm-6.516052,64.057251c0,5.496887 12.240051,1.583801 17.229797,-5.387329c7.162292,-11.787598 6.44104,-14.902588 -2.911316,-14.902588c-6.433777,0 -14.318481,10.970093 -14.318481,20.289917zm20.834045,-168.819092c-2.165771,10.120667 -3.604248,18.705688 -2.88324,19.474731c2.162292,3.157166 7.886353,-20.327332 7.886353,-29.683289c0,-3.917053 -2.166321,0.799377 -5.003113,10.208557zm37.286438,157.931091c-3.605103,0 -6.446594,1.568176 -6.446594,4.653259c0,2.345093 2.118591,3.919312 4.280151,3.919312c2.889404,0 5.71228,-1.574219 6.433655,-3.919312c1.444763,-3.085083 -0.721375,-4.653259 -4.267212,-4.653259zm-8.607971,147.010498c4.279968,14.106812 10.689697,27.306519 14.319946,30.506104c3.628418,2.357788 10.797913,13.339966 15.06366,24.278931c4.258423,10.917114 8.61261,19.489502 9.3302,19.489502c3.562378,0 -3.630737,-71.930542 -8.608704,-93.844727c-4.350037,-18.769287 -5.711609,-35.968384 -4.987244,-63.363281c0.637207,-20.327515 0,-38.244873 -1.445801,-39.812866c-0.721497,-1.576721 -5.723694,-1.576721 -10.073486,0c-7.874146,3.066711 -8.595703,5.476318 -8.595703,22.677856c0,13.235229 -1.48053,20.348877 -5.002869,23.471558c-10.078918,7.011108 -9.357544,46.819214 0,76.596924zm-20.79248,-104.776855c-1.439514,-11.774475 -2.882874,-13.343079 -10.769226,-13.343079c-9.344849,0 -9.344849,0.849915 -8.623047,17.253113c0,10.0896 1.469788,21.865723 2.190613,27.359131c0.72168,5.511475 3.521606,10.909424 6.432434,11.759155c5.720032,3.919678 12.164612,-23.411621 10.769226,-43.02832zm-10.769226,78.930298c-6.432434,-9.354492 -10.785278,-19.493774 -11.434753,-21.841187c0,-3.138306 -3.632629,-10.972656 -7.876831,-17.963745c-4.363953,-7.021606 -9.353333,-15.692017 -11.519531,-18.789917c-7.164612,-10.981567 -5.724182,-1.569458 2.166199,22.692871c4.98938,16.408203 13.597534,31.263672 23.673767,43.748657c18.601318,21.195679 20.766418,17.28064 4.99115,-7.84668zm-11.434753,38.395874c7.802429,0 7.165161,-0.80835 -3.632629,-13.268555c-7.165039,-7.87207 -12.154175,-16.429565 -12.154175,-20.35498c0,-3.141724 -9.33374,-14.126831 -20.11908,-24.266113c-10.725464,-10.198242 -20.763,-20.311157 -22.208984,-23.476685c-1.462646,-3.856079 -2.185425,-3.856079 -2.185425,0.820801c0,4.687134 -3.532654,5.397949 -15.053894,3.03833c-7.874756,-1.5448 -14.320557,-1.5448 -14.320557,-0.693604c0,1.544678 2.885864,10.904663 5.770264,20.311157c5.001221,15.562622 7.167725,18.775269 22.954834,24.984497c9.992126,3.926025 25.76532,13.275269 35.829102,20.355835c9.33374,7.10791 20.766663,12.549316 25.120544,12.549316zm-111.904175,26.55835c2.883484,0 7.162903,-1.586182 10.050476,-3.954956c4.98999,-5.498169 0.745667,-5.498169 -8.61084,0c-4.267578,2.368774 -4.988708,3.103149 -1.439636,3.954956zm-7.877869,-19.509521c7.155029,-3.206665 30.1073,-6.328857 50.955139,-6.328857c39.354065,-0.719971 47.269287,-3.095459 31.480774,-7.787842c-5.002563,-1.566772 -16.437012,-5.481445 -25.768921,-9.39624c-16.504944,-7.041016 -50.233459,-4.676514 -53.782837,3.195557c-0.717407,1.490479 -4.327332,2.347656 -7.884644,1.490479c-7.155945,-2.351074 -14.344421,3.919556 -16.508728,16.417114c-2.885864,10.118164 2.164307,10.976196 21.509216,2.40979zm-57.339355,17.92334c1.463806,6.324585 8.618713,7.067871 14.342102,1.586182c3.52179,-3.103638 3.52179,-4.671143 0,-9.453125c-2.906677,-4.634277 -5.000977,-4.634277 -9.352905,-0.717407c-2.887817,2.287476 -4.989197,6.215576 -4.989197,8.584351zm-22.932312,54.746704c2.801941,0 4.244263,2.335693 2.801941,6.976318c-0.635681,3.202026 -2.801941,6.355469 -4.268738,6.355469c-2.16156,0 -3.532654,-3.153442 -3.532654,-6.355469c0,-3.777588 2.092224,-6.976318 4.999451,-6.976318z" stroke-width="0" stroke="#000" fill="#435472"/>
  <path transform="rotate(-1.84204, 1982.21, 1343.78)" id="svg_25" d="m2065.692627,1317.183472l-1.64502,53.193848l-165.318726,-3.838623l91.094116,-46.062622l75.869629,-3.292603z" stroke-width="0" stroke="#000" fill="#fcfcfc"/>
 </g>
</svg>