<svg width="2560" height="1600" xmlns="http://www.w3.org/2000/svg">
 <!-- Created with Method Draw - http://github.com/duopixel/Method-Draw/ -->

 <g>
  <title>background</title>
  <rect fill="#fff" id="canvas_background" height="1602" width="2562" y="-1" x="-1"/>
  <g display="none" overflow="visible" y="0" x="0" height="100%" width="100%" id="canvasGrid">
   <rect fill="url(#gridpattern)" stroke-width="0" y="0" x="0" height="100%" width="100%"/>
  </g>
 </g>
 <g>
  <title>Layer 1</title>
  <rect opacity="0.47" id="svg_10" height="1643.386577" width="2583.417058" y="-10.866003" x="-22.379198" stroke-opacity="null" stroke-width="0" stroke="#000" fill="#ffff00"/>
  <path id="svg_13" d="m398.077606,196.701294l-68.597168,24.408356l0,-48.777893l68.597168,24.369537zm-49.810516,-120.220184l-31.249634,65.790314l-34.481445,-34.520798l65.731079,-31.269516zm-120.199432,-49.769592l24.398575,68.605988l-48.797684,0l24.399109,-68.605988zm-120.210815,49.769592l65.761765,31.269516l-34.501938,34.520798l-31.259827,-65.790314zm-49.799133,120.220184l68.616425,-24.369537l0,48.777893l-68.616425,-24.408356zm49.799133,120.220184l31.259827,-65.751236l34.501938,34.500992l-65.761765,31.250244l0,0zm120.210815,49.808655l-24.399109,-68.606323l48.797684,0l-24.398575,68.606323zm120.199432,-49.808655l-65.750488,-31.250244l34.491364,-34.500992l31.259125,65.751236zm-205.194778,-120.220184l0,0c0,-46.934677 38.061005,-85.005295 85.014816,-85.005295c46.933716,0 85.004761,38.070618 85.004761,85.005295c0,46.953339 -38.071045,85.004425 -85.004761,85.004425c-46.963562,0 -85.014816,-38.051086 -85.014816,-85.004425l0,0z" stroke-opacity="null" stroke-width="0" stroke="#000" fill="#535F75"/>
  <path id="svg_27" d="m1934.451538,852.368591c-12.23877,-10.275269 -35.110474,0.886292 -37.88147,-17.865173c-5.293579,-16.682007 10.947388,-29.682739 21.734009,-39.778992c18.856079,-9.425842 40.672363,-10.570007 61.061401,-14.880371c24.504395,-3.536621 49.999512,-6.592896 71.105225,-20.659607c24.010254,-15.067261 50.785645,-27.558167 79.740967,-27.333801c39.877686,-1.398865 81.136719,-0.034973 118.056885,16.979614c23.159912,10.462097 48.0625,15.76532 72.804688,20.884766c21.07959,2.802795 16.175781,25.490417 23.167969,39.487915c5.336914,16.056091 -6.222168,32.081665 -23.11792,32.558716c-17.875732,4.092041 -38.829834,4.495422 -51.309082,20.076843c-12.781494,14.178894 -35.728271,13.660339 -48.7771,0.142578c-5.378174,-3.312561 -8.981689,-11.416199 -16.11792,-10.018677c-66.858887,0.370178 -133.75,-0.957703 -200.571533,1.183716c-17.453247,-1.404175 -24.718384,20.292725 -43.30957,18.781067c-9.513428,0.295776 -18.501465,-15.061646 -26.586548,-19.558594l0,0z" stroke-opacity="null" stroke-width="0" stroke="#000" fill="#535F75"/>
  <path transform="rotate(180, 2100.55, 1105.21)" id="svg_14" d="m1914.451294,1155.706299c-12.23877,-10.275146 -35.110474,0.886353 -37.88147,-17.865112c-5.293579,-16.682007 10.947388,-29.682739 21.734009,-39.778931c18.856079,-9.425903 40.672363,-10.570068 61.061401,-14.880371c24.504395,-3.536621 49.999512,-6.593018 71.105225,-20.659668c24.010254,-15.067261 50.785645,-27.558105 79.740967,-27.33374c39.877686,-1.398926 81.136719,-0.035034 118.056885,16.979492c23.159912,10.462158 48.0625,15.765381 72.804688,20.884766c21.07959,2.802856 16.175781,25.490479 23.167969,39.488037c5.336914,16.05603 -6.222168,32.081543 -23.11792,32.558594c-17.875732,4.092041 -38.829834,4.495483 -51.309082,20.076904c-12.781494,14.178955 -35.728271,13.6604 -48.7771,0.142578c-5.378174,-3.3125 -8.981689,-11.41626 -16.11792,-10.018677c-66.858887,0.370239 -133.75,-0.957642 -200.571533,1.183716c-17.453247,-1.404175 -24.718384,20.292725 -43.30957,18.781006c-9.513428,0.295898 -18.501465,-15.061523 -26.586548,-19.558594l0,0z" stroke-opacity="null" stroke-width="0" stroke="#000" fill="#535F75"/>
  <rect id="svg_17" height="93.336391" width="2886.760335" y="873.847021" x="-155.04639" stroke-opacity="null" stroke-width="0" stroke="#000" fill="#535F75"/>
  <rect id="svg_26" height="93.336391" width="2886.760335" y="913.847784" x="-95.044444" stroke-opacity="null" stroke-width="0" stroke="#000" fill="#535F75"/>
  <rect id="svg_15" height="93.336391" width="2886.760335" y="913.847784" x="-95.044444" stroke-opacity="null" stroke-width="0" stroke="#000" fill="#535F75"/>
  <rect id="svg_18" height="16.667207" width="126.670777" y="905.244231" x="-6.437772" stroke-opacity="null" stroke-width="0" stroke="#000" fill="#fcfcfc"/>
  <rect id="svg_19" height="16.667207" width="126.670777" y="905.244231" x="370.477054" stroke-opacity="null" stroke-width="0" stroke="#000" fill="#fcfcfc"/>
  <rect id="svg_16" height="16.667207" width="126.670777" y="905.244231" x="2320.555353" stroke-opacity="null" stroke-width="0" stroke="#000" fill="#fcfcfc"/>
  <rect id="svg_20" height="16.667207" width="126.670777" y="905.244231" x="773.838477" stroke-opacity="null" stroke-width="0" stroke="#000" fill="#fcfcfc"/>
  <rect id="svg_21" height="16.667207" width="126.670777" y="905.244231" x="1177.184904" stroke-opacity="null" stroke-width="0" stroke="#000" fill="#fcfcfc"/>
  <rect id="svg_22" height="16.667207" width="126.670777" y="905.244231" x="1547.196915" stroke-opacity="null" stroke-width="0" stroke="#000" fill="#fcfcfc"/>
  <rect id="svg_23" height="16.667207" width="126.670777" y="905.244231" x="1950.543342" stroke-opacity="null" stroke-width="0" stroke="#000" fill="#fcfcfc"/>
  <path id="svg_24" d="m849.086365,637.519592c-1.741455,0 -2.635742,-1.437927 -2.635742,-3.13678c0,-1.435303 0.446899,-2.829468 1.744324,-2.829468c0.891418,0 2.24707,1.394165 2.693665,2.829468c0.895691,2.082031 0,3.13678 -1.802246,3.13678zm297.95697,81.906982c3.988281,0 4.883423,0.382385 2.633911,2.851196c-1.295776,1.697388 -3.991089,3.135803 -5.280151,3.135803c-1.339355,0 -2.694824,-1.438416 -2.694824,-3.135803c0,-1.767883 1.802612,-2.851196 5.341064,-2.851196zm-278.41626,-100.183533c-3.984131,-0.681641 -4.430908,-4.204468 0,-5.301086c2.256165,-0.32312 3.54248,0.713196 3.54248,2.856812c0,1.762634 -1.286316,2.79126 -3.54248,2.444275zm-49.688538,111.402893c5.323425,-0.993469 5.323425,-1.748474 3.52002,-4.172424c-1.338989,-1.765259 -1.785645,-3.872864 -0.89209,-4.57843c0.446411,-1.05011 2.695496,0 3.991211,2.080078c1.800415,2.834839 3.141968,3.205322 6.686768,1.438416c2.195923,-1.052673 3.982361,-1.759705 3.982361,-0.705322c0,0.705322 1.340515,0 3.096802,-1.437866c2.682983,-2.077148 3.142883,-6.674194 0.447144,-9.106628c-2.20343,-2.117493 -13.321045,-1.410461 -16.403931,1.054321c-1.800354,1.759644 -3.141663,1.378113 -4.890564,-1.758667c-2.6828,-5.266174 -2.6828,-5.991699 3.536621,-6.31488c5.345215,0 5.345215,0 0.907166,-2.115479c-2.247131,-1.038696 -4.443787,-3.18689 -4.443787,-4.565857c0,-3.532837 6.187744,-5.616211 8.881836,-3.173523c0.894714,1.023376 2.628479,2.108582 4.44043,2.108582c3.536499,0 20.42865,-11.939148 20.42865,-14.405151c0,-1.05249 1.759094,-1.754028 3.544678,-1.05249c2.19873,0.358643 6.190369,-0.701538 10.224854,-2.46051c5.728027,-2.825806 5.728027,-3.150452 2.630371,-7.741028c-2.183533,-3.171021 -4.877625,-4.229736 -11.103149,-4.229736c-7.081909,0 -8.882019,0.702332 -11.073303,4.907654c-0.906982,2.848572 -3.589233,4.947754 -5.338989,4.947754c-3.081848,0 -3.991028,-3.179993 -0.893066,-4.947754c1.341431,-0.677917 2.247925,-3.143372 2.247925,-5.614685c0,-3.846252 -0.906494,-4.528015 -6.687744,-3.52356c-5.792175,0.713562 -5.792175,0.382568 -4.427124,-4.916687c0.892822,-3.138062 2.180359,-5.991272 3.088745,-6.314148c0.894653,-0.358887 1.786438,-3.542053 1.786438,-6.667847c0,-6.330994 2.653259,-7.39032 7.52832,-2.830322c2.233398,2.44751 3.589783,2.830322 4.439819,0.68158c0.891418,-1.386658 4.032227,-1.720032 8.919373,-1.015686c6.635132,1.395569 7.081848,1.015686 6.186768,-3.166565c-0.446838,-2.433228 -0.893799,-5.290527 -1.338867,-5.97467c0,-1.073547 -2.205872,-2.44989 -4.8479,-3.521057c-5.330017,-1.761841 -6.672302,-5.99176 -1.785889,-5.99176c1.339111,0 2.642151,-0.71228 2.642151,-2.085876c0,-1.073792 2.680542,-1.766724 6.225586,-1.444275c4.898376,0.370483 7.528564,-1.028137 14.215698,-8.412598c4.875793,-5.278687 8.419495,-8.105713 8.867676,-6.668701c0.446533,1.761414 2.694275,2.795593 4.897949,2.795593c3.537842,0 3.984619,-1.03418 2.682922,-5.613708c-0.446838,-3.177368 -2.682922,-7.023621 -4.04425,-8.795593c-3.984802,-3.87146 -3.984802,-8.444458 0,-7.047058c3.149719,1.411865 12.911621,-2.449219 12.911621,-4.921082c0,-1.051941 1.304138,-1.762512 3.090393,-1.762512c1.808167,0 2.650513,2.145325 2.650513,4.939758c0,3.526489 0.89386,4.919434 3.141724,3.890808c1.744019,-0.735107 3.097534,-2.837891 3.097534,-4.228699c0,-4.214844 14.200012,-11.594177 17.737061,-9.507568c1.356445,0.706299 2.695129,0 3.142029,-2.46991c1.312927,-4.899414 9.315613,-8.759705 12.860596,-6.290771c1.802917,1.008972 3.544189,0.6828 4.005737,-0.382507c0.895081,-1.381409 4.432129,-2.457153 8.421021,-2.792236c3.99115,-0.35553 9.316833,-1.766724 11.564636,-3.201538c8.428223,-4.534119 16.851807,-4.211121 20.389038,0.705627c2.247131,3.524719 3.142517,3.524719 3.142517,1.052368c0,-3.133545 1.741821,-3.525574 12.41156,-2.42804c16.896423,1.375671 19.545837,1.375671 25.785706,-0.382996c3.984131,-1.037598 5.326172,-0.714539 5.326172,2.141602c0,1.757446 1.286255,3.141785 3.09668,3.141785c1.338623,0 2.628662,-1.028809 2.628662,-2.090149c0,-2.810242 7.149048,-4.230835 13.373047,-2.810242c4.834106,1.375671 5.278931,1.758606 3.984863,11.227844c-0.44812,5.644104 0,9.484863 0.849243,9.484863c0.891602,0 1.800659,-2.442627 1.800659,-5.957703c0,-5.970215 4.879028,-8.413696 6.686401,-3.527161c0.447266,1.761963 1.734375,1.056213 2.628296,-1.737366c2.248169,-7.38562 7.134033,-3.520813 5.792603,4.552917c-1.360352,6.669312 -1.360352,6.669312 2.631348,4.226685c2.24707,-1.074585 3.988037,-3.837708 3.988037,-5.602966c0,-1.759644 1.357544,-3.882324 3.1427,-4.611816c3.536865,-1.391479 7.528076,3.902527 6.241821,7.751709c-0.446655,1.757446 -0.446655,3.144714 0.839478,3.144714c0.893555,0 1.78894,-1.004761 1.78894,-1.756226c0,-1.006287 2.202881,-1.388489 4.898193,-0.68219c5.772583,1.051147 6.619019,3.876404 1.735718,5.616211c-1.288818,0.728516 -2.642212,2.43512 -2.642212,3.869385c0,2.474304 0.906494,2.474304 5.785034,0c7.981445,-4.192688 11.518921,-3.869385 12.859131,0.706482c0.909424,2.473572 2.651123,3.543457 4.439941,2.473572c1.800659,-0.370789 5.791382,1.069885 8.881592,3.49884c2.695313,2.124573 6.671509,3.860413 8.4729,3.860413c2.64624,0 2.64624,1.764099 1.735962,6.700745c-0.893433,5.288635 -0.893433,5.975037 1.800293,3.849304c3.545288,-3.503357 4.886841,-3.180847 6.196045,1.764404c0.446777,2.440369 3.574707,4.196228 7.11145,5.292847c3.991455,0.669495 6.18689,2.429443 6.18689,4.551453c0,2.118958 1.341187,4.590271 2.705811,5.971558c3.536499,2.465759 2.627686,9.847961 -1.364624,12.281189c-1.341187,0.773071 -3.089966,0.390381 -3.536621,-0.670898c-0.893921,-1.09021 -3.991455,-1.09021 -9.76123,0c-9.338013,2.44751 -11.073975,3.147827 -8.890137,6.339417c1.352417,2.099915 16.865601,1.396912 25.338257,-1.049744c2.642456,-1.076965 3.537476,0 3.537476,4.918518c0,3.514954 -0.89502,6.30896 -2.233765,6.30896c-0.90918,0 -1.751709,1.064209 -1.751709,2.830078c0,4.228027 2.198853,3.842957 7.976807,-1.067627c3.090332,-2.84552 4.876221,-3.526672 7.081665,-1.762451c2.233154,1.762451 2.694092,1.762451 2.694092,-1.083069c0,-1.710938 -0.907715,-3.140991 -2.246826,-3.140991c-0.84314,0 -1.759277,-1.380981 -1.759277,-2.790466c0,-1.766296 1.312012,-3.163208 3.098389,-3.163208c1.35437,0 3.141724,0.704346 3.141724,1.720032c0,1.084839 1.757568,2.471741 3.992188,2.852661c3.089844,1.057861 3.983643,2.421875 3.536865,6.66925c-0.894409,8.080688 0.893433,10.525513 7.528076,9.138489c3.150146,-0.698914 4.883179,0 3.544434,1.387024c-0.394287,0.713562 0,2.466309 0.891235,3.20105c3.590088,2.088257 2.250732,7.022827 -1.732788,7.022827c-4.901001,0 -6.239624,1.762939 -3.596558,4.914734c1.785156,1.768677 3.149902,2.080505 4.88269,0.7146c4.036743,-3.543823 4.901489,-0.7146 5.348511,13.332153c0,7.054932 0.893433,12.68042 1.785156,12.68042c2.198608,0 1.342285,7.750427 -1.785156,10.89679c-1.758545,1.767639 -1.758545,3.471497 -0.447021,4.906067c3.12793,3.172485 0,12.324402 -4.007324,12.324402c-3.544312,0 -10.209961,6.673401 -10.209961,9.81781c0,3.856262 -5.738159,0 -7.080444,-4.212585c-1.339355,-3.847534 -1.339355,-3.847534 -2.255005,-1.076721c-0.842651,3.197632 4.006958,13.055481 8.027588,15.845886c2.651001,2.108093 -2.235718,5.644104 -5.772583,4.207703c-1.807983,-0.682007 -2.649902,-2.7677 -2.649902,-4.914368c0,-5.993652 -11.115723,-21.079468 -19.538574,-26.731262c-4.491455,-2.794678 -8.472656,-5.930481 -8.472656,-7.015015c0,-2.124878 -14.216064,-8.761597 -22.191528,-10.913086c-4.437012,-1.047913 -5.778076,-0.675354 -5.778076,2.151489c0,2.080444 -0.841675,2.786438 -2.642944,2.080444c-3.990723,-1.375854 -5.791382,1.761108 -2.254639,4.91449c4.897583,3.843811 4.055908,8.458557 -1.289551,6.693298c-3.5896,-1.089111 -4.036011,-0.706299 -2.695923,5.290649c0.44873,3.470215 1.354004,8.065735 1.354004,10.15155c0,2.15033 0.895386,3.527527 1.788696,3.527527c1.301147,0 1.756836,-0.671265 0.842773,-1.768127c-0.447388,-1.05426 0.458374,-2.085571 2.254639,-2.085571c1.338745,0 2.642944,1.402588 2.642944,2.799438c0,1.436707 -1.748413,2.808899 -4.897583,2.463379c-2.63147,0 -4.87915,-1.026672 -4.87915,-1.733459c0,-3.203186 -11.965088,-24.956299 -15.509888,-28.169067c-3.983887,-3.459961 -1.341553,-4.549927 -32.844116,11.97113c-4.9021,2.473022 -10.224731,7.760803 -12.919678,11.615601c-2.19104,3.852417 -5.727905,7.750305 -7.536255,8.428406c-1.788696,0.705444 -8.42334,6.328186 -14.192993,12.317017c-24.89209,26.344482 -20.850952,29.523254 -19.099365,83.336914c7.528198,40.777893 7.528198,40.777893 7.528198,40.777893c-17.751831,0 -17.751831,0 -17.751831,0c-14.661865,0 -14.661865,0 -14.661865,0c1.353882,-37.624573 1.353882,-37.624573 1.353882,-37.624573c0.895935,-3.15332 1.342651,-9.525146 1.787048,-13.055237c0.447815,-2.079834 -12.457886,-11.232422 -12.00946,-13.315979c0,-1.766907 13.350403,3.177307 13.350403,1.412842c2.203491,-25.661621 0,-46.091064 -5.776733,-56.939758c-1.342346,-6.668396 -12.459595,-28.162964 -14.208618,-28.162964c-0.446472,0 -3.596313,-2.085693 -6.671875,-4.561523c-5.345825,-4.587708 -7.528564,-4.910828 -37.298584,-6.322449c-31.97345,-1.442749 -31.97345,-1.442749 -31.97345,-1.442749c-7.5578,4.944397 -7.5578,4.944397 -7.5578,4.944397c-4.437195,3.21283 -8.891052,5.296631 -10.180359,5.296631c-2.695496,0 -13.820251,7.366699 -18.643616,11.572449c-0.447876,0 -0.894897,-0.34552 -0.894897,-0.668152c-0.446777,0 -0.446777,0 -0.446777,-0.382751c-0.447021,-1.028076 -0.91449,-2.080933 -1.808594,-3.154846c2.702393,-1.761475 4.898682,-2.838196 5.792297,-2.455566c1.342224,0.694092 2.651001,0 2.651001,-1.776428c0,-1.756042 -2.651001,-2.464355 -9.732727,-1.756042c-8.472961,1.068054 -10.671692,1.438843 -12.010437,5.61676c-2.205933,2.151123 -2.648804,5.28241 -1.34082,7.754822c-0.469238,3.156555 -0.469238,5.300293 0,5.300293c0.44696,0 0.893982,-0.70575 2.236145,-1.437744c0,0.344055 0.44342,0.731995 0.892456,1.054932c-4.436584,1.052185 -6.687134,4.232361 -6.225647,7.375732c-2.248474,1.438232 -4.451599,2.136353 -7.13385,3.2052c0,0 0,-0.386597 -0.394897,-0.386597c1.735718,-3.149719 2.63031,-6.674988 3.077148,-11.955261c0.906982,-5.951538 0.444885,-9.857117 -0.89386,-9.857117c-0.894653,0 -1.788391,1.443787 -1.788391,3.522766c0.446838,1.76709 -0.394897,3.544006 -2.196228,3.86377c-1.341553,0.370728 -2.233276,-0.319763 -2.233276,-2.09668c0,-4.192993 -1.757751,-4.192993 -5.741333,-0.346069c-1.788025,1.434143 -5.332458,3.151794 -8.428589,3.881287c-4.036804,1.032043 -5.323425,0.326538 -7.125793,-3.535217c-1.342712,-3.139282 -2.23468,-6.666138 -1.342712,-8.06012c0.446899,-1.762695 0.446899,-3.193726 -1.308899,-3.193726c-4.885681,0 -1.341614,-5.612793 4.453979,-6.711548zm38.175781,-80.798157c-2.681213,-0.382813 -4.887146,-1.416809 -5.777588,-2.850525c-0.44812,-2.08905 -0.894714,-2.08905 -0.894714,0c0,1.433716 -1.80011,2.467712 -3.544495,2.850525c-3.142395,0 -3.142395,0.346924 0.447388,1.752136c2.188843,0.683716 4.439392,1.766296 4.882263,1.766296c0.395874,0 2.654602,-1.082581 4.887146,-1.766296c3.983582,-1.752136 3.983582,-1.752136 0,-1.752136zm352.103455,56.580261c0.841553,0.716492 1.732788,-0.347839 1.732788,-2.114441c0,-1.411743 -0.891235,-2.794556 -1.732788,-2.794556c-1.364014,0 -2.254639,0.706665 -2.254639,1.741821c0,1.052734 0.890625,2.496887 2.254639,3.167175zm-3.149658,3.176758c-0.446899,-1.088257 -2.643188,-2.460266 -4.431274,-2.460266c-1.308472,0 -2.203247,1.372009 -1.308472,2.460266c0.412842,1.058289 2.202881,1.771423 3.988403,1.771423c1.751343,0 2.19812,-0.713135 1.751343,-1.771423zm-3.984375,15.808777c1.341187,0 3.142822,-0.382813 3.142822,-0.705322c0,-0.733093 -1.801636,-1.437866 -3.142822,-2.107605c-1.755371,-0.705566 -3.096924,-0.322876 -3.096924,0.669739c0,1.090515 1.341553,2.143188 3.096924,2.143188zm3.537476,-33.383911c1.785156,-0.712769 2.703125,-1.768005 2.232544,-2.797791c-1.338867,-2.499573 -8.866943,-2.499573 -8.866943,0c0,2.797791 2.650024,3.850647 6.634399,2.797791zm-24.372437,-26.368347c-2.247803,1.052612 -3.588867,3.140991 -3.14209,4.230591c2.235352,2.771912 4.878906,2.087097 7.110962,-2.469604c2.202637,-4.229492 1.312012,-4.911316 -3.968872,-1.760986zm-8.487549,54.147644c11.562988,9.471436 12.009766,9.843506 12.009766,6.664551c0,-1.765259 -0.891968,-3.203125 -2.232666,-3.203125c-1.289551,0 -3.537354,-1.757568 -4.878418,-3.843811c-1.309326,-2.085449 -3.989868,-4.208496 -6.188721,-4.208496c-4.043457,0 -4.043457,0.346802 1.290039,4.590881zm-9.314697,-16.548096c2.694336,0 3.981201,-0.712219 2.232422,-1.035156c-1.340576,-0.706665 -3.529541,-0.706665 -4.88501,0c-1.338745,0.322937 0,1.035156 2.652588,1.035156zm-12.858765,-47.809387c1.338989,1.067627 5.3302,2.446289 8.867432,3.147461c6.223755,1.057617 6.685669,1.057617 3.141724,-1.758118c-4.036499,-3.474609 -15.110107,-4.55719 -12.009155,-1.389343zm-27.075684,-58.343079c-1.356323,1.028198 -1.802856,3.164307 -1.356323,4.560303c0.893677,2.809265 3.544434,0.371033 3.544434,-3.86676c0,-2.106506 -0.446411,-2.465515 -2.18811,-0.693542zm13.305908,75.925171c3.54541,1.763611 4.884277,1.763611 6.68689,-0.708252c3.538452,-3.84552 1.287109,-5.611389 -5.348145,-3.140198c-5.322754,1.705688 -5.322754,1.705688 -1.338745,3.84845zm-8.870117,-17.582092c6.687378,-3.851563 6.687378,-3.851563 1.341919,-3.851563c-3.5896,0 -6.240356,1.377075 -7.580566,3.851563c-0.840332,2.446289 -1.733887,3.8526 -1.287109,3.8526c0,0 3.536865,-2.080078 7.525757,-3.8526zm-9.776245,56.980164c3.09082,3.841553 8.422241,3.841553 6.680054,-0.385376c-0.448486,-1.383179 -0.8927,-3.146545 -0.8927,-3.529724c0,-0.323303 -1.803223,-0.323303 -3.983643,0.383179c-3.5896,0.705078 -3.5896,1.763367 -1.803711,3.531921zm-13.75415,-14.436462c3.522095,3.846985 5.32605,4.23053 9.317627,1.403076c2.650635,-1.762024 2.650635,-1.762024 0,-2.108582c-1.341064,0 -4.886353,-0.359314 -7.976685,-1.053162c-4.437622,-1.389526 -4.437622,-1.389526 -1.340942,1.758667zm-0.458984,-38.338623c2.247925,0 4.890259,-5.608643 3.536987,-7.372925c-1.737061,-1.777771 -5.325806,1.082581 -5.325806,4.235474c0,1.756897 0.894165,3.137451 1.788818,3.137451zm-21.729858,23.902039c-2.702637,1.434509 -2.254517,1.770264 1.289795,1.770264c2.247681,0 4.882202,-0.6828 5.792969,-1.770264c1.340332,-2.795593 -3.098511,-2.795593 -7.082764,0zm0.447266,30.953491c0.394653,0.382874 1.734009,-0.348328 3.09021,-2.080444c1.34021,-1.442261 5.330444,-3.199402 8.422485,-3.9151c3.989258,-1.048828 5.778198,-2.758789 5.778198,-5.255676c0,-5.971191 -6.224976,-4.209534 -12.860474,3.51355c-2.696411,3.888672 -4.877686,7.033875 -4.43042,7.737671zm-4.885864,-16.199036c3.992065,-3.848938 3.992065,-4.549438 0.842285,-5.613464c-3.537231,-1.38269 -6.188232,1.764526 -6.188232,7.380737c-0.446777,4.233276 -0.446777,4.233276 5.345947,-1.767273zm-7.131348,-41.472229c0.44751,2.815735 1.338623,2.463257 3.989258,-2.792908c3.14209,-5.616943 3.14209,-6.344849 0.447144,-6.344849c-1.734253,0 -3.544556,1.05426 -3.988892,2.802795c-0.894165,1.418945 -0.894165,4.617371 -0.44751,6.334961zm-2.19873,-28.813477c0,1.442566 0.842285,4.920166 1.752075,7.382202c1.338501,4.910156 1.338501,4.910156 2.701538,0.672119c1.734375,-4.205017 0,-10.520081 -2.701538,-10.520081c-1.304565,0 -1.752075,1.046387 -1.752075,2.465759zm-31.107666,11.592041c-2.184448,2.459351 -2.184448,4.930359 -0.446899,12.30542c0.893311,5.299194 3.141357,10.586182 4.42749,11.589844c2.257813,1.764099 2.705566,0 3.152466,-10.908691c0,-13.322083 -2.257568,-17.531555 -7.133057,-12.986572zm3.980591,37.276245c0.447388,0.692505 1.36438,-0.710876 0.894897,-2.809326c0,-2.1073 -0.44751,-2.429993 -1.338501,-1.052734c-0.395264,1.383423 -0.395264,3.151184 0.443604,3.862061zm16.00415,-33.050964c-0.446777,0.705078 -0.446777,5.6203 0.914673,10.908569c1.340698,9.138489 1.735352,9.521057 2.183228,2.82135c0.446777,-10.900085 -0.447876,-16.190002 -3.0979,-13.729919zm-15.109253,99.153259c2.701538,-4.209412 7.133789,-11.253235 10.230103,-15.495483c3.537231,-4.555054 5.793823,-10.524719 6.687622,-16.513062c1.289429,-9.470337 1.289429,-9.470337 1.289429,-9.470337c-5.333374,5.255371 -5.333374,5.255371 -5.333374,5.255371c-2.643677,2.830383 -4.429199,5.978882 -4.429199,7.033875c0,2.787903 -8.44458,20.373779 -11.072632,23.549194c-1.341187,1.754211 -3.589355,5.640442 -3.985107,8.435852c-2.254517,8.091248 1.737671,6.679749 6.613159,-2.79541zm-31.504211,36.221252c1.353943,6.995361 1.353943,6.995361 5.792053,-8.097656c2.651123,-8.113464 6.635437,-21.099487 9.316284,-29.176331c3.544678,-10.2005 4.899658,-18.674805 4.899658,-30.56897c0,-15.501221 -0.46167,-15.8479 -4.006226,-14.086548c-8.027649,4.55249 -12.456726,17.222412 -14.245605,41.822021c-0.850037,12.675354 -1.756165,25.339905 -2.650513,28.109924c-0.447083,2.849121 0,8.136841 0.894348,11.997559zm0.906128,-89.987305c1.744568,3.467712 3.545471,6.296448 3.545471,6.296448c0.446838,0 2.630005,-2.123047 4.438049,-4.920532c2.233093,-2.438843 5.769836,-5.278931 7.112122,-6.308533c5.292725,-3.167297 6.634766,-13.025635 2.202637,-19.701965c-3.544922,-5.998352 -13.305969,-12.672485 -15.10614,-10.549377c-0.895752,0.705322 -2.192139,7.366943 -3.098267,15.137207c-1.788208,11.577881 -1.788208,15.114136 0.906128,20.046753zm-2.694336,-80.520325c0.89386,0.709106 1.788208,0.326965 1.788208,-0.730225c0,-1.414063 -0.894348,-2.79718 -1.788208,-3.503357c-1.353699,-0.728577 -2.196289,-0.345947 -2.196289,1.035156c0,1.054138 0.84259,2.468201 2.196289,3.198425zm-143.845581,94.549316c6.18811,0.346924 6.18811,0.346924 6.18811,0.346924c6.239258,0 12.456604,-4.556458 12.456604,-8.43811c0,-2.470093 -0.446838,-2.470093 -18.644714,8.091187zm2.643188,-9.855591c0,1.058838 0.894104,2.123047 2.255371,2.123047c2.181213,0 8.423523,-6.296448 7.081665,-7.359375c-1.363403,-1.436646 -9.337036,3.147949 -9.337036,5.236328zm4.898682,-24.220154c6.671265,6.999634 9.762085,7.71051 13.306091,3.140198c3.589111,-4.193481 0.44696,-7.04657 -10.23114,-8.051025c-8.868469,-1.081482 -8.868469,-1.081482 -3.074951,4.910828zm-4.898682,-19.720154c0,0.729736 3.150269,2.459839 6.687012,3.901245c16.396179,6.672607 19.545898,6.672607 19.098999,0.322815c0,-3.841248 -6.687622,-12.304443 -9.337402,-12.304443c-3.127319,0 -16.448608,6.699402 -16.448608,8.080383zm23.999695,49.933289c4.876221,0 5.322998,-1.085205 1.3396,-2.790894c-1.809021,-0.37085 -3.54541,0 -3.992188,1.02887c-0.907104,1.068787 0.446777,1.762024 2.652588,1.762024zm3.537354,-82.599487c-3.092529,-1.760193 -7.097046,-2.467163 -8.885315,-1.760193c-3.097046,1.379395 -2.650208,1.760193 1.788269,2.812317c2.19574,0.71051 6.687439,1.392151 8.88269,1.739136c2.65155,0 2.65155,-0.705566 -1.785645,-2.79126zm-0.409607,12.671143c2.642151,0 3.090393,-0.388611 1.301697,-1.442566c-1.301697,-0.32312 -3.089844,-0.32312 -3.984619,0.346985c-0.444824,0.70697 0.894775,1.417175 2.682922,1.095581zm2.642151,8.049683c-6.239319,0 -6.239319,0.323181 -2.642151,3.183044c4.428406,3.142029 5.74054,3.513 7.525635,1.376099c3.090698,-2.794861 0.894897,-4.559143 -4.883484,-4.559143zm8.868103,-39.717651c-1.786682,-1.759827 -2.233398,1.393433 -1.338745,5.261536c0.444824,2.449646 2.233093,4.595093 3.149597,4.595093c1.734131,0 0.444824,-7.756165 -1.810852,-9.856628zm14.21521,46.413696c-0.893127,0.334106 1.339111,2.458862 3.991455,4.215332c2.696045,1.763733 4.883667,2.46405 4.883667,1.416809c0,-2.467712 -7.536011,-7.062866 -8.875122,-5.632141zm-11.117188,2.458862c-3.991943,2.467346 -1.734619,8.776978 4.036011,9.844604c3.097839,0.704895 7.976807,3.519714 11.072632,6.314819c2.696045,2.827393 4.883667,3.880005 4.883667,2.827393c0,-3.533813 -17.741943,-20.429993 -19.99231,-18.986816zm18.206787,29.187256c-2.651306,-5.650085 -5.750488,-8.439453 -11.519775,-10.200439c-4.436646,-1.387024 -8.890686,-2.146667 -10.232483,-1.769592c-1.339233,0.382568 3.992432,4.910583 11.572815,10.19458c14.215454,9.152771 14.215454,9.152771 10.179443,1.775452zm23.575073,-54.152771c-0.89386,0 -1.802917,1.384033 -1.802917,2.790405c0,1.768433 0.909058,2.822083 1.802917,2.822083c1.29425,0 2.20282,-1.05365 2.20282,-2.822083c0,-1.406372 -0.908569,-2.790405 -2.20282,-2.790405zm-4.0354,28.796875c0,2.47113 7.580261,0.712036 10.670349,-2.421875c4.435608,-5.299072 3.988892,-6.699402 -1.802979,-6.699402c-3.984375,0 -8.867371,4.93158 -8.867371,9.121277zm12.902466,-75.892395c-1.341248,4.549683 -2.232117,8.409119 -1.785583,8.754822c1.339111,1.419312 4.883972,-9.138123 4.883972,-13.344055c0,-1.760925 -1.341614,0.359314 -3.098389,4.589233zm23.091309,70.997742c-2.232605,0 -3.99231,0.704956 -3.99231,2.091858c0,1.05426 1.312012,1.761902 2.650635,1.761902c1.789429,0 3.537598,-0.707642 3.984375,-1.761902c0.894714,-1.386902 -0.446777,-2.091858 -2.6427,-2.091858zm-5.330872,66.088379c2.650574,6.341736 6.620117,12.275574 8.868286,13.713989c2.24707,1.059937 6.687134,5.996948 9.328857,10.914551c2.637207,4.907776 5.33374,8.761475 5.778137,8.761475c2.206177,0 -2.248474,-32.336304 -5.331299,-42.187744c-2.69397,-8.437744 -3.53717,-16.169556 -3.088562,-28.484863c0.394592,-9.138245 0,-17.192993 -0.895386,-17.897888c-0.446838,-0.708801 -3.544678,-0.708801 -6.238464,0c-4.876465,1.378662 -5.323303,2.461914 -5.323303,10.194824c0,5.94989 -0.91687,9.147827 -3.098267,10.551636c-6.241821,3.151794 -5.795105,21.047485 0,34.434021zm-12.876709,-47.102295c-0.891479,-5.293213 -1.785339,-5.998352 -6.669312,-5.998352c-5.787231,0 -5.787231,0.38208 -5.34021,7.756104c0,4.535767 0.910217,9.829712 1.356628,12.299255c0.44696,2.477661 2.180908,4.904297 3.983582,5.286316c3.542358,1.762085 7.533508,-10.524658 6.669312,-19.343323zm-6.669312,35.483032c-3.983582,-4.205322 -6.67926,-8.763428 -7.081482,-9.818665c0,-1.410828 -2.249695,-4.9328 -4.878113,-8.075623c-2.702576,-3.156555 -5.79248,-7.05426 -7.133972,-8.44696c-4.437012,-4.936768 -3.544983,-0.705505 1.341492,10.201538c3.089905,7.376282 8.420898,14.054565 14.661072,19.667175c11.519714,9.528442 12.860535,7.768433 3.091003,-3.527466zm-7.081482,17.260803c4.83197,0 4.437317,-0.363403 -2.249695,-5.964905c-4.437256,-3.538879 -7.527039,-7.385864 -7.527039,-9.150513c0,-1.412354 -5.780334,-6.350708 -12.459656,-10.908813c-6.642212,-4.584595 -12.858459,-9.130859 -13.753906,-10.553894c-0.905823,-1.733521 -1.353455,-1.733521 -1.353455,0.368958c0,2.107117 -2.187744,2.426636 -9.322815,1.365906c-4.87677,-0.694458 -8.868652,-0.694458 -8.868652,-0.311829c0,0.694397 1.787231,4.902161 3.573486,9.130859c3.097229,6.996155 4.438965,8.440369 14.215881,11.23175c6.188049,1.764954 15.956299,5.967896 22.188782,9.15094c5.780334,3.195374 12.860718,5.641541 15.557068,5.641541zm-69.301819,11.93927c1.785767,0 4.435974,-0.713074 6.224243,-1.777954c3.090271,-2.47168 0.461792,-2.47168 -5.332642,0c-2.642944,1.06488 -3.089539,1.39502 -0.891602,1.777954zm-4.878723,-8.770508c4.431091,-1.441528 18.645325,-2.845093 31.556335,-2.845093c24.371765,-0.323669 29.273621,-1.391602 19.495911,-3.501038c-3.098083,-0.704346 -10.179382,-2.464172 -15.958618,-4.22406c-10.221436,-3.165283 -31.109375,-2.102356 -33.307495,1.436523c-0.444275,0.670044 -2.679871,1.05542 -4.882935,0.670044c-4.431641,-1.056885 -8.883423,1.762024 -10.223755,7.38031c-1.787231,4.548584 1.340332,4.934326 13.320557,1.083313zm-35.51001,8.057434c0.906494,2.843201 5.337524,3.177368 8.882019,0.713074c2.18103,-1.395264 2.18103,-2.099915 0,-4.249634c-1.80011,-2.083374 -3.097107,-2.083374 -5.792236,-0.32251c-1.788391,1.02832 -3.089783,2.794189 -3.089783,3.85907zm-14.201904,24.611267c1.735229,0 2.628479,1.050049 1.735229,3.13623c-0.393677,1.439453 -1.735229,2.857056 -2.643616,2.857056c-1.338623,0 -2.187744,-1.417603 -2.187744,-2.857056c0,-1.698242 1.295715,-3.13623 3.09613,-3.13623z" stroke-width="0" stroke="#000" fill="#435472"/>
  <path transform="rotate(-1.84204, 2087.34, 762.715)" id="svg_28" d="m2148.790283,743.136963l-1.210938,39.156006l-121.69165,-2.825623l67.054688,-33.906677l55.8479,-2.423706z" stroke-width="0" stroke="#000" fill="#fcfcfc"/>
  <path transform="rotate(180, 2117.34, 1142.72)" id="svg_25" d="m2178.79126,1123.142578l-1.210938,39.156006l-121.691895,-2.825562l67.054932,-33.906738l55.8479,-2.423706z" stroke-width="0" stroke="#000" fill="#fcfcfc"/>
  <path id="svg_29" d="m1013.37384,700.68396c-0.006409,0 -0.009705,-0.00647 -0.009705,-0.014221c0,-0.00647 0.001648,-0.012756 0.006409,-0.012756c0.003296,0 0.008301,0.006287 0.009949,0.012756c0.003296,0.009399 0,0.014221 -0.006653,0.014221zm1.098999,0.36853c0.014709,0 0.018005,0.001648 0.009705,0.012695c-0.004761,0.007751 -0.014709,0.014221 -0.01947,0.014221c-0.004944,0 -0.009949,-0.00647 -0.009949,-0.014221c0,-0.007935 0.006653,-0.012695 0.019714,-0.012695zm-1.026917,-0.450806c-0.014709,-0.003174 -0.016357,-0.019043 0,-0.023804c0.008301,-0.001465 0.013062,0.003113 0.013062,0.012695c0,0.007935 -0.004761,0.012573 -0.013062,0.011108zm-0.183289,0.501343c0.019653,-0.004639 0.019653,-0.007935 0.013,-0.018799c-0.004944,-0.007935 -0.006592,-0.017517 -0.003296,-0.020691c0.001648,-0.004761 0.009949,0 0.014709,0.009399c0.006653,0.012756 0.011597,0.014404 0.024658,0.00647c0.008118,-0.004761 0.014709,-0.007935 0.014709,-0.003113c0,0.003113 0.004944,0 0.011414,-0.00647c0.009888,-0.009399 0.011597,-0.03009 0.001648,-0.041138c-0.008118,-0.009399 -0.049133,-0.006287 -0.060486,0.004761c-0.006653,0.007996 -0.011597,0.006287 -0.018066,-0.007874c-0.009888,-0.023621 -0.009888,-0.026978 0.013062,-0.028442c0.019714,0 0.019714,0 0.003357,-0.009583c-0.008301,-0.004578 -0.016418,-0.014221 -0.016418,-0.020447c0,-0.015869 0.022827,-0.025269 0.032776,-0.014221c0.003296,0.004639 0.009705,0.009399 0.016357,0.009399c0.013062,0 0.075378,-0.05365 0.075378,-0.064758c0,-0.004761 0.00647,-0.007935 0.013062,-0.004761c0.008118,0.001648 0.022827,-0.003174 0.03772,-0.011108c0.021118,-0.012695 0.021118,-0.01416 0.009705,-0.034851c-0.008057,-0.01416 -0.018005,-0.018982 -0.040955,-0.018982c-0.026123,0 -0.032776,0.003113 -0.040833,0.022156c-0.003357,0.012695 -0.013245,0.022095 -0.019714,0.022095c-0.011353,0 -0.014709,-0.01416 -0.003296,-0.022095c0.004944,-0.003174 0.008301,-0.014221 0.008301,-0.025269c0,-0.017395 -0.003357,-0.020508 -0.024658,-0.015869c-0.021362,0.003113 -0.021362,0.001648 -0.016357,-0.022156c0.003296,-0.014221 0.008057,-0.026917 0.011414,-0.028381c0.003296,-0.001709 0.006592,-0.015869 0.006592,-0.03009c0,-0.028381 0.009766,-0.033203 0.027771,-0.012756c0.00824,0.011108 0.013245,0.012756 0.016357,0.003174c0.003296,-0.006287 0.014893,-0.007751 0.032898,-0.004639c0.024475,0.006287 0.026123,0.004639 0.022827,-0.01416c-0.001648,-0.011108 -0.003296,-0.023804 -0.004944,-0.026978c0,-0.004761 -0.008118,-0.011047 -0.017883,-0.015869c-0.019653,-0.007935 -0.024597,-0.026917 -0.006592,-0.026917c0.004944,0 0.009766,-0.003113 0.009766,-0.009399c0,-0.004822 0.009888,-0.007935 0.022949,-0.00647c0.018066,0.001648 0.027771,-0.004578 0.052429,-0.037781c0.018005,-0.023804 0.031067,-0.03656 0.032715,-0.03009c0.001648,0.007935 0.009949,0.012573 0.018066,0.012573c0.013062,0 0.014709,-0.004639 0.009888,-0.025269c-0.001648,-0.014221 -0.009888,-0.031555 -0.014893,-0.03949c-0.014709,-0.017517 -0.014709,-0.038025 0,-0.031738c0.011597,0.006287 0.047607,-0.011047 0.047607,-0.022156c0,-0.004761 0.004822,-0.007935 0.011414,-0.007935c0.006653,0 0.009766,0.009644 0.009766,0.022156c0,0.015869 0.003296,0.022156 0.011597,0.017517c0.006409,-0.003296 0.011414,-0.012695 0.011414,-0.018982c0,-0.018982 0.052368,-0.052185 0.06543,-0.042786c0.005005,0.003113 0.009949,0 0.011597,-0.011047c0.004822,-0.022156 0.034363,-0.03949 0.047424,-0.028442c0.006653,0.004639 0.013062,0.003113 0.014771,-0.001648c0.003296,-0.006287 0.016357,-0.011047 0.031067,-0.012573c0.014709,-0.001648 0.034363,-0.007935 0.042664,-0.014343c0.031067,-0.020508 0.062134,-0.019043 0.075195,0.003113c0.008301,0.015869 0.011597,0.015869 0.011597,0.004822c0,-0.014221 0.006409,-0.015869 0.045776,-0.011108c0.062317,0.006287 0.072083,0.006287 0.095093,-0.001648c0.014709,-0.004578 0.019653,-0.003113 0.019653,0.009583c0,0.007935 0.004761,0.014221 0.011414,0.014221c0.004944,0 0.009705,-0.004639 0.009705,-0.009399c0,-0.012756 0.026367,-0.018982 0.049316,-0.012756c0.017822,0.006287 0.01947,0.007935 0.014709,0.050537c-0.001648,0.025452 0,0.042786 0.003113,0.042786c0.003296,0 0.006653,-0.011047 0.006653,-0.026917c0,-0.026733 0.018005,-0.037781 0.024658,-0.015869c0.001648,0.007935 0.006409,0.004822 0.009705,-0.007751c0.008301,-0.033203 0.026306,-0.015869 0.021362,0.020508c-0.005005,0.030029 -0.005005,0.030029 0.009705,0.018982c0.008301,-0.004761 0.014709,-0.017334 0.014709,-0.025269c0,-0.007935 0.005005,-0.017334 0.011597,-0.02063c0.013062,-0.006287 0.027771,0.017517 0.02301,0.034851c-0.001648,0.007935 -0.001648,0.014221 0.003113,0.014221c0.003296,0 0.006592,-0.004639 0.006592,-0.007935c0,-0.004639 0.008118,-0.006287 0.018066,-0.003174c0.021301,0.004822 0.024414,0.017517 0.006409,0.025269c-0.004761,0.003357 -0.009766,0.011108 -0.009766,0.017517c0,0.011108 0.003357,0.011108 0.021362,0c0.029419,-0.018982 0.04248,-0.017517 0.047424,0.003174c0.003357,0.011047 0.009766,0.015869 0.016357,0.011047c0.006653,-0.001648 0.021362,0.004822 0.032776,0.015869c0.009949,0.009399 0.024597,0.017334 0.03125,0.017334c0.009766,0 0.009766,0.007935 0.006409,0.03009c-0.003296,0.023804 -0.003296,0.026917 0.006653,0.017334c0.013062,-0.015686 0.018005,-0.014221 0.022827,0.007935c0.001648,0.011047 0.013184,0.018982 0.026245,0.023743c0.014709,0.003174 0.022827,0.011108 0.022827,0.020508c0,0.009583 0.004944,0.02063 0.009949,0.026917c0.013062,0.011108 0.009705,0.044312 -0.005005,0.055359c-0.004944,0.003296 -0.011414,0.001648 -0.013062,-0.003113c-0.003296,-0.004822 -0.014709,-0.004822 -0.036011,0c-0.034424,0.011047 -0.040833,0.01416 -0.032776,0.028564c0.005005,0.009399 0.062195,0.006287 0.093445,-0.004822c0.009766,-0.004761 0.013062,0 0.013062,0.022156c0,0.015869 -0.003296,0.028381 -0.00824,0.028381c-0.003357,0 -0.00647,0.004822 -0.00647,0.012756c0,0.018982 0.008118,0.017334 0.029419,-0.004822c0.011414,-0.012695 0.018005,-0.015869 0.026123,-0.007935c0.00824,0.007935 0.009949,0.007935 0.009949,-0.004761c0,-0.007751 -0.003357,-0.014221 -0.008301,-0.014221c-0.003113,0 -0.00647,-0.006287 -0.00647,-0.012512c0,-0.007935 0.004822,-0.014221 0.011414,-0.014221c0.005005,0 0.011597,0.003113 0.011597,0.007751c0,0.004761 0.00647,0.011047 0.014709,0.012695c0.011414,0.004822 0.014709,0.011108 0.013062,0.03009c-0.003296,0.036316 0.003296,0.047424 0.027771,0.041138c0.011597,-0.003174 0.018005,0 0.013062,0.006287c-0.001465,0.003113 0,0.011047 0.003296,0.014343c0.013245,0.00946 0.008301,0.031555 -0.006409,0.031555c-0.018066,0 -0.02301,0.007935 -0.013245,0.022156c0.006592,0.007935 0.011597,0.009399 0.018005,0.003113c0.014893,-0.015869 0.018066,-0.003113 0.019714,0.06012c0,0.031738 0.003296,0.057007 0.006592,0.057007c0.008118,0 0.004944,0.034851 -0.006592,0.049072c-0.00647,0.007935 -0.00647,0.015686 -0.001648,0.022156c0.011536,0.01416 0,0.055298 -0.014771,0.055298c-0.013062,0 -0.037659,0.03009 -0.037659,0.044312c0,0.017334 -0.021179,0 -0.026123,-0.019043c-0.004944,-0.017334 -0.004944,-0.017334 -0.008301,-0.004761c-0.003113,0.014404 0.014771,0.058655 0.029602,0.071167c0.009766,0.009644 -0.00824,0.025452 -0.021301,0.019043c-0.006653,-0.003174 -0.009766,-0.012573 -0.009766,-0.022156c0,-0.026917 -0.041016,-0.094788 -0.072083,-0.120239c-0.016541,-0.012573 -0.03125,-0.026794 -0.03125,-0.031555c0,-0.009583 -0.052429,-0.03949 -0.081848,-0.049072c-0.016357,-0.004822 -0.021301,-0.003113 -0.021301,0.009583c0,0.009399 -0.003113,0.012512 -0.009766,0.009399c-0.014709,-0.006287 -0.021362,0.007935 -0.008301,0.022156c0.018066,0.017334 0.014954,0.037964 -0.004761,0.030029c-0.013245,-0.004761 -0.014893,-0.003113 -0.009949,0.023804c0.001648,0.015686 0.005005,0.036377 0.005005,0.045776c0,0.009583 0.003296,0.015869 0.006592,0.015869c0.004822,0 0.00647,-0.003174 0.003113,-0.007935c-0.001648,-0.004822 0.001709,-0.009399 0.008301,-0.009399c0.004944,0 0.009766,0.006226 0.009766,0.012512c0,0.00647 -0.00647,0.012756 -0.018066,0.011108c-0.009705,0 -0.018005,-0.004639 -0.018005,-0.007751c0,-0.014404 -0.044128,-0.112366 -0.05719,-0.12677c-0.014709,-0.015686 -0.004944,-0.020447 -0.121155,0.053894c-0.018066,0.011047 -0.03772,0.034851 -0.047668,0.052185c-0.008057,0.017334 -0.021118,0.034851 -0.027771,0.038025c-0.006592,0.003113 -0.031067,0.028381 -0.052368,0.055298c-0.091797,0.118591 -0.076904,0.132813 -0.070435,0.375c0.027771,0.183533 0.027771,0.183533 0.027771,0.183533c-0.065491,0 -0.065491,0 -0.065491,0c-0.054077,0 -0.054077,0 -0.054077,0c0.005005,-0.169312 0.005005,-0.169312 0.005005,-0.169312c0.003296,-0.014221 0.004944,-0.042786 0.006592,-0.058655c0.001648,-0.009399 -0.045959,-0.050537 -0.044312,-0.059937c0,-0.007935 0.049255,0.01416 0.049255,0.006226c0.008118,-0.115417 0,-0.207275 -0.021301,-0.256165c-0.004944,-0.03009 -0.045959,-0.126709 -0.052429,-0.126709c-0.001648,0 -0.013245,-0.00946 -0.024597,-0.020508c-0.019714,-0.02063 -0.027771,-0.022156 -0.137573,-0.028381c-0.11792,-0.00647 -0.11792,-0.00647 -0.11792,-0.00647c-0.027893,0.022156 -0.027893,0.022156 -0.027893,0.022156c-0.016357,0.014343 -0.032776,0.023743 -0.037537,0.023743c-0.009949,0 -0.050964,0.033203 -0.068787,0.052246c-0.001648,0 -0.003296,-0.001648 -0.003296,-0.003174c-0.001648,0 -0.001648,0 -0.001648,-0.001648c-0.001648,-0.004578 -0.003357,-0.009399 -0.006653,-0.014221c0.009949,-0.007935 0.018066,-0.012695 0.021362,-0.011047c0.004944,0.003113 0.009766,0 0.009766,-0.007935c0,-0.007935 -0.009766,-0.011047 -0.035889,-0.007935c-0.03125,0.004822 -0.039368,0.00647 -0.044312,0.025269c-0.008118,0.009583 -0.009766,0.023804 -0.004944,0.034851c-0.001709,0.014221 -0.001709,0.023804 0,0.023804c0.001648,0 0.003296,-0.003113 0.00824,-0.00647c0,0.001709 0.001648,0.003357 0.003296,0.004822c-0.016357,0.004822 -0.024658,0.018982 -0.022949,0.033203c-0.008301,0.00647 -0.016418,0.009583 -0.026306,0.014404c0,0 0,-0.001648 -0.001465,-0.001648c0.006409,-0.014221 0.009705,-0.03009 0.011353,-0.053894c0.003357,-0.026733 0.001648,-0.04425 -0.003296,-0.04425c-0.003296,0 -0.006592,0.00647 -0.006592,0.015869c0.001648,0.007935 -0.001465,0.015869 -0.008118,0.017334c-0.004944,0.001648 -0.00824,-0.001465 -0.00824,-0.009399c0,-0.019043 -0.00647,-0.019043 -0.021179,-0.001709c-0.006592,0.00647 -0.019653,0.014221 -0.031067,0.017578c-0.014893,0.004578 -0.019653,0.001465 -0.026306,-0.015869c-0.004944,-0.014221 -0.00824,-0.03009 -0.004944,-0.036377c0.001648,-0.007935 0.001648,-0.014343 -0.004822,-0.014343c-0.018005,0 -0.004944,-0.02533 0.016418,-0.03009zm0.140808,-0.36377c-0.009888,-0.001648 -0.018005,-0.006226 -0.021301,-0.012695c-0.001648,-0.009399 -0.003296,-0.009399 -0.003296,0c0,0.00647 -0.006653,0.011047 -0.013062,0.012695c-0.011597,0 -0.011597,0.001648 0.001648,0.007935c0.008057,0.003174 0.016357,0.007935 0.018005,0.007935c0.001465,0 0.009766,-0.004761 0.018005,-0.007935c0.014709,-0.007935 0.014709,-0.007935 0,-0.007935zm1.298706,0.254761c0.003113,0.003113 0.006409,-0.001648 0.006409,-0.009583c0,-0.006287 -0.003296,-0.012573 -0.006409,-0.012573c-0.005005,0 -0.008301,0.003174 -0.008301,0.007751c0,0.004822 0.003296,0.011292 0.008301,0.014404zm-0.011597,0.014221c-0.001648,-0.004822 -0.009766,-0.011108 -0.016357,-0.011108c-0.004822,0 -0.008118,0.006287 -0.004822,0.011108c0.001526,0.004761 0.008118,0.007874 0.014709,0.007874c0.00647,0 0.008118,-0.003113 0.00647,-0.007874zm-0.014709,0.071167c0.004944,0 0.011597,-0.001648 0.011597,-0.003113c0,-0.003357 -0.006653,-0.00647 -0.011597,-0.009583c-0.00647,-0.003174 -0.011414,-0.001526 -0.011414,0.003113c0,0.004822 0.004944,0.009583 0.011414,0.009583zm0.013062,-0.15033c0.006592,-0.003113 0.009949,-0.007935 0.00824,-0.012512c-0.004944,-0.011292 -0.032715,-0.011292 -0.032715,0c0,0.012512 0.009766,0.017334 0.024475,0.012512zm-0.089905,-0.118591c-0.008301,0.004761 -0.013245,0.014221 -0.011597,0.018982c0.00824,0.012573 0.018005,0.009399 0.026245,-0.011047c0.008118,-0.019043 0.004822,-0.022156 -0.014648,-0.007935zm-0.031311,0.243652c0.042664,0.042603 0.044312,0.04425 0.044312,0.03009c0,-0.007935 -0.003296,-0.014404 -0.00824,-0.014404c-0.004761,0 -0.013062,-0.007935 -0.018005,-0.017334c-0.004822,-0.009399 -0.014709,-0.019043 -0.022827,-0.019043c-0.014893,0 -0.014893,0.001709 0.004761,0.020691zm-0.034363,-0.074524c0.009949,0 0.014709,-0.003113 0.00824,-0.004578c-0.004944,-0.003174 -0.013,-0.003174 -0.018005,0c-0.004944,0.001465 0,0.004578 0.009766,0.004578zm-0.047424,-0.215088c0.004944,0.004822 0.019653,0.011108 0.032715,0.014221c0.022949,0.004822 0.024658,0.004822 0.011597,-0.007935c-0.014893,-0.015686 -0.055725,-0.020447 -0.044312,-0.006287zm-0.099854,-0.262451c-0.005005,0.004578 -0.006653,0.014221 -0.005005,0.020447c0.003296,0.012756 0.013062,0.001648 0.013062,-0.017334c0,-0.009583 -0.001648,-0.011047 -0.008057,-0.003113zm0.049072,0.341614c0.013062,0.007935 0.018005,0.007935 0.024658,-0.003174c0.013062,-0.017334 0.004761,-0.025269 -0.019714,-0.01416c-0.019653,0.007751 -0.019653,0.007751 -0.004944,0.017334zm-0.032715,-0.079163c0.024658,-0.017334 0.024658,-0.017334 0.004944,-0.017334c-0.013245,0 -0.02301,0.006287 -0.027954,0.017334c-0.003113,0.011108 -0.006409,0.017334 -0.004761,0.017334c0,0 0.013062,-0.009399 0.027771,-0.017334zm-0.036072,0.256409c0.011414,0.017334 0.031067,0.017334 0.024658,-0.001648c-0.001648,-0.006287 -0.003296,-0.014221 -0.003296,-0.015869c0,-0.001465 -0.006653,-0.001465 -0.014709,0.001648c-0.013245,0.003174 -0.013245,0.007935 -0.006653,0.015869zm-0.05072,-0.064941c0.013,0.017334 0.019653,0.019043 0.034363,0.006287c0.009766,-0.007935 0.009766,-0.007935 0,-0.009399c-0.004944,0 -0.018005,-0.001648 -0.029419,-0.004822c-0.016357,-0.006226 -0.016357,-0.006226 -0.004944,0.007935zm-0.001709,-0.172424c0.008301,0 0.018066,-0.025269 0.013062,-0.033203c-0.006409,-0.007935 -0.019653,0.004761 -0.019653,0.018982c0,0.007935 0.003296,0.014221 0.006592,0.014221zm-0.080139,0.107483c-0.009949,0.00647 -0.008301,0.007996 0.004761,0.007996c0.008301,0 0.018005,-0.003174 0.021362,-0.007996c0.004944,-0.012512 -0.011414,-0.012512 -0.026123,0zm0.001648,0.139282c0.001465,0.001648 0.006409,-0.001648 0.011414,-0.009399c0.004944,-0.00647 0.019653,-0.014404 0.031067,-0.017517c0.014709,-0.004822 0.021301,-0.012512 0.021301,-0.023804c0,-0.026733 -0.022949,-0.018799 -0.047424,0.015869c-0.009949,0.017517 -0.018005,0.031738 -0.016357,0.034851zm-0.018005,-0.072815c0.014709,-0.017395 0.014709,-0.020508 0.003113,-0.02533c-0.013062,-0.006226 -0.022827,0.007935 -0.022827,0.033203c-0.001648,0.019043 -0.001648,0.019043 0.019714,-0.007874zm-0.026306,-0.186707c0.001648,0.012756 0.004944,0.011047 0.014709,-0.012512c0.011597,-0.025269 0.011597,-0.028625 0.001648,-0.028625c-0.006409,0 -0.013062,0.004822 -0.014709,0.012756c-0.003296,0.006226 -0.003296,0.02063 -0.001648,0.028381zm-0.008118,-0.129639c0,0.006409 0.003113,0.022095 0.00647,0.033203c0.004944,0.022095 0.004944,0.022095 0.009949,0.003113c0.006409,-0.018982 0,-0.047424 -0.009949,-0.047424c-0.004822,0 -0.00647,0.004822 -0.00647,0.011108zm-0.114746,0.052185c-0.008057,0.011047 -0.008057,0.022095 -0.001648,0.055298c0.003296,0.023804 0.011597,0.047607 0.016357,0.052246c0.008301,0.007935 0.009949,0 0.011597,-0.049072c0,-0.059937 -0.008301,-0.078979 -0.026306,-0.058472zm0.014709,0.167664c0.001648,0.003113 0.005005,-0.003113 0.003296,-0.012573c0,-0.009583 -0.001648,-0.011047 -0.004944,-0.004761c-0.001465,0.006287 -0.001465,0.014221 0.001648,0.017334zm0.059021,-0.148682c-0.001648,0.003113 -0.001648,0.025269 0.003357,0.049072c0.004944,0.041138 0.006409,0.042786 0.008057,0.012756c0.001648,-0.049072 -0.001648,-0.072876 -0.011414,-0.061829zm-0.055725,0.446228c0.009949,-0.019043 0.026306,-0.050781 0.03772,-0.069763c0.013062,-0.020447 0.021362,-0.047363 0.024658,-0.074341c0.004761,-0.042603 0.004761,-0.042603 0.004761,-0.042603c-0.019653,0.023621 -0.019653,0.023621 -0.019653,0.023621c-0.009766,0.012756 -0.016357,0.026917 -0.016357,0.031738c0,0.012512 -0.031128,0.091675 -0.040833,0.105896c-0.004944,0.007874 -0.013245,0.025452 -0.014709,0.037964c-0.008301,0.036316 0.006409,0.03009 0.024414,-0.012512zm-0.116211,0.162842c0.005005,0.031555 0.005005,0.031555 0.021362,-0.036316c0.009766,-0.03656 0.024475,-0.095032 0.034363,-0.131348c0.013062,-0.045959 0.018066,-0.083923 0.018066,-0.137634c0,-0.069702 -0.001709,-0.071167 -0.014771,-0.063232c-0.029602,0.020447 -0.045959,0.077454 -0.052551,0.18811c-0.003113,0.057007 -0.00647,0.114014 -0.009766,0.126587c-0.001648,0.012695 0,0.036499 0.003296,0.053833zm0.003357,-0.404846c0.006409,0.015625 0.013062,0.028381 0.013062,0.028381c0.001648,0 0.009705,-0.009583 0.016357,-0.022156c0.00824,-0.011047 0.021301,-0.023743 0.026245,-0.028381c0.019531,-0.014404 0.024475,-0.058655 0.008118,-0.088745c-0.013062,-0.026917 -0.049072,-0.057007 -0.055725,-0.047363c-0.003296,0.003113 -0.008057,0.033203 -0.011414,0.068054c-0.006592,0.052185 -0.006592,0.068054 0.003357,0.09021zm-0.009949,-0.362305c0.003296,0.003174 0.006592,0.001465 0.006592,-0.003296c0,-0.006287 -0.003296,-0.012573 -0.006592,-0.015686c-0.005005,-0.003357 -0.008118,-0.001648 -0.008118,0.004578c0,0.004822 0.003113,0.011108 0.008118,0.014404zm-0.530579,0.425354c0.022827,0.001648 0.022827,0.001648 0.022827,0.001648c0.02301,0 0.045959,-0.020447 0.045959,-0.037964c0,-0.011108 -0.001648,-0.011108 -0.068787,0.036316zm0.009766,-0.04425c0,0.004761 0.003296,0.009583 0.008301,0.009583c0.008057,0 0.031067,-0.028381 0.026123,-0.033203c-0.005005,-0.00647 -0.034424,0.014221 -0.034424,0.023621zm0.018066,-0.109009c0.024597,0.031555 0.036011,0.034668 0.049072,0.01416c0.013245,-0.018982 0.001648,-0.031677 -0.03772,-0.036316c-0.032715,-0.004822 -0.032715,-0.004822 -0.011353,0.022156zm-0.018066,-0.088745c0,0.003296 0.011597,0.011047 0.024658,0.017517c0.060486,0.03009 0.072083,0.03009 0.070435,0.001465c0,-0.017334 -0.024658,-0.055298 -0.034424,-0.055298c-0.011536,0 -0.060669,0.030029 -0.060669,0.036316zm0.088501,0.22467c0.018005,0 0.019653,-0.004761 0.004944,-0.012512c-0.006653,-0.001709 -0.013062,0 -0.014709,0.004578c-0.003357,0.004822 0.001648,0.007935 0.009766,0.007935zm0.013062,-0.371704c-0.011414,-0.007935 -0.026184,-0.011047 -0.032776,-0.007935c-0.011414,0.006287 -0.009766,0.007935 0.006592,0.012756c0.008118,0.003113 0.024658,0.006287 0.032776,0.007751c0.009766,0 0.009766,-0.003174 -0.006592,-0.012573zm-0.001526,0.057007c0.009766,0 0.011414,-0.001648 0.004822,-0.006409c-0.004822,-0.001526 -0.011414,-0.001526 -0.014709,0.001648c-0.001648,0.003113 0.003296,0.006226 0.009888,0.004761zm0.009766,0.036377c-0.02301,0 -0.02301,0.001465 -0.009766,0.01416c0.016357,0.014221 0.021179,0.015869 0.027771,0.006287c0.011414,-0.012512 0.003296,-0.020447 -0.018005,-0.020447zm0.032715,-0.178772c-0.006592,-0.007935 -0.00824,0.006287 -0.004944,0.023621c0.001648,0.011047 0.00824,0.020691 0.011597,0.020691c0.006409,0 0.001648,-0.034912 -0.006653,-0.044312zm0.052429,0.208801c-0.003296,0.001465 0.004944,0.011108 0.014709,0.019043c0.009949,0.007874 0.018005,0.011047 0.018005,0.006226c0,-0.011047 -0.027771,-0.031738 -0.032715,-0.025269zm-0.041016,0.011108c-0.014709,0.011047 -0.006409,0.039429 0.014893,0.04425c0.011414,0.003113 0.029419,0.015869 0.040833,0.028381c0.009949,0.012756 0.018005,0.017517 0.018005,0.012756c0,-0.015869 -0.06543,-0.091858 -0.07373,-0.085388zm0.067139,0.131287c-0.009766,-0.025452 -0.021179,-0.037964 -0.04248,-0.045898c-0.016357,-0.006287 -0.032776,-0.009583 -0.03772,-0.007935c-0.004944,0.001648 0.014709,0.022156 0.042664,0.045898c0.052429,0.041138 0.052429,0.041138 0.037537,0.007935zm0.086975,-0.243652c-0.003296,0 -0.006653,0.006287 -0.006653,0.012573c0,0.007935 0.003357,0.012695 0.006653,0.012695c0.004761,0 0.008118,-0.004761 0.008118,-0.012695c0,-0.006287 -0.003357,-0.012573 -0.008118,-0.012573zm-0.014893,0.1297c0,0.011047 0.027954,0.003113 0.039368,-0.011108c0.016357,-0.023804 0.014709,-0.030029 -0.006653,-0.030029c-0.014709,0 -0.032715,0.022095 -0.032715,0.041138zm0.047607,-0.341614c-0.004944,0.020447 -0.00824,0.037781 -0.006592,0.039429c0.004944,0.006287 0.018005,-0.041077 0.018005,-0.06012c0,-0.007935 -0.004944,0.001648 -0.011414,0.020691zm0.085144,0.319458c-0.00824,0 -0.014709,0.003113 -0.014709,0.009399c0,0.004822 0.004822,0.007935 0.009766,0.007935c0.006592,0 0.013062,-0.003113 0.014709,-0.007935c0.003296,-0.006287 -0.001648,-0.009399 -0.009766,-0.009399zm-0.019653,0.297363c0.009766,0.028564 0.024414,0.055298 0.032715,0.061768c0.008301,0.004822 0.024658,0.026917 0.034424,0.049072c0.009705,0.022156 0.019653,0.03949 0.021301,0.03949c0.008118,0 -0.008301,-0.145569 -0.019653,-0.189819c-0.009949,-0.038025 -0.013062,-0.072876 -0.011414,-0.128174c0.001465,-0.041138 0,-0.077515 -0.003296,-0.080627c-0.001648,-0.003113 -0.013062,-0.003113 -0.02301,0c-0.018005,0.006287 -0.019653,0.011047 -0.019653,0.045898c0,0.026794 -0.003357,0.041138 -0.011414,0.047424c-0.02301,0.014221 -0.021362,0.094849 0,0.154968zm-0.047485,-0.211975c-0.003296,-0.023804 -0.006592,-0.026917 -0.024597,-0.026917c-0.021362,0 -0.021362,0.001648 -0.019714,0.034851c0,0.020508 0.003357,0.044312 0.005005,0.055359c0.001648,0.011047 0.008057,0.022095 0.014709,0.023804c0.013062,0.007935 0.027771,-0.047424 0.024597,-0.087097zm-0.024597,0.159729c-0.014709,-0.018982 -0.024658,-0.039429 -0.026123,-0.04425c0,-0.006287 -0.008301,-0.022095 -0.018005,-0.036316c-0.009949,-0.014221 -0.021362,-0.031738 -0.026306,-0.038025c-0.016357,-0.022095 -0.013062,-0.003113 0.004944,0.045959c0.011414,0.033203 0.031067,0.063232 0.054077,0.088501c0.04248,0.042786 0.047424,0.034851 0.011414,-0.015869zm-0.026123,0.077698c0.017822,0 0.016357,-0.001648 -0.008301,-0.026978c-0.016357,-0.015808 -0.027771,-0.033142 -0.027771,-0.041077c0,-0.006287 -0.021301,-0.028625 -0.045959,-0.049072c-0.024475,-0.020691 -0.047424,-0.041138 -0.05072,-0.047424c-0.003357,-0.007935 -0.005005,-0.007935 -0.005005,0.001465c0,0.009583 -0.008057,0.011047 -0.034363,0.006287c-0.018005,-0.003174 -0.032715,-0.003174 -0.032715,-0.001465c0,0.003113 0.006592,0.022095 0.013184,0.041138c0.011414,0.031555 0.016357,0.037964 0.052429,0.050537c0.022827,0.007935 0.058838,0.026917 0.081848,0.041138c0.021301,0.014343 0.047424,0.025452 0.057373,0.025452zm-0.255615,0.05365c0.006592,0 0.016357,-0.003113 0.022949,-0.007935c0.011414,-0.011047 0.001709,-0.011047 -0.019653,0c-0.009766,0.004822 -0.011414,0.006287 -0.003296,0.007935zm-0.018005,-0.03949c0.016357,-0.006409 0.068787,-0.012695 0.116394,-0.012695c0.089905,-0.001465 0.107971,-0.006287 0.071899,-0.015869c-0.011414,-0.003113 -0.037537,-0.011047 -0.058838,-0.018982c-0.03772,-0.014221 -0.114746,-0.009399 -0.122864,0.006409c-0.001648,0.003174 -0.009888,0.004822 -0.018005,0.003174c-0.016357,-0.004822 -0.032776,0.007935 -0.03772,0.033203c-0.006592,0.020447 0.004944,0.022156 0.049133,0.004761zm-0.130981,0.036377c0.003357,0.012695 0.019714,0.01416 0.032776,0.003113c0.008057,-0.006287 0.008057,-0.009399 0,-0.018982c-0.006653,-0.009399 -0.011414,-0.009399 -0.021362,-0.001465c-0.006592,0.004578 -0.011414,0.012512 -0.011414,0.017334zm-0.052368,0.110657c0.006409,0 0.009705,0.004822 0.006409,0.014221c-0.001465,0.00647 -0.006409,0.012695 -0.009766,0.012695c-0.004944,0 -0.008057,-0.006226 -0.008057,-0.012695c0,-0.007751 0.004761,-0.014221 0.011414,-0.014221z" fill-opacity="null" stroke-opacity="null" stroke-width="0" stroke="#000" fill="#435472"/>
 </g>
</svg>